<svg width="97" height="97" viewBox="0 0 97 97" fill="none" xmlns="http://www.w3.org/2000/svg">
<mask id="mask0" mask-type="alpha" maskUnits="userSpaceOnUse" x="0" y="0" width="97" height="97">
<path d="M48.3214 25.1501L59.7966 15.5875H74.8202V0H37.4102V15.5875H48.3214V25.1501ZM40.5277 12.47V3.1175H71.7027V12.47H58.6687L51.4389 18.4949V12.47H40.5277Z" fill="black"/>
<path d="M43.6455 6.23486H46.763V9.35237H43.6455V6.23486Z" fill="black"/>
<path d="M49.8799 6.23486H62.3499V9.35237H49.8799V6.23486Z" fill="black"/>
<path d="M65.4678 6.23486H68.5853V9.35237H65.4678V6.23486Z" fill="black"/>
<path d="M79.3479 93.5251L78.0875 80.9067C83.2919 80.084 87.29 75.5774 87.29 70.1439V49.8801H81.055V47.7262C81.055 45.6072 79.8905 43.7045 78.0182 42.7287C79.8799 41.0185 81.055 38.5731 81.055 35.8514V32.7339C81.055 27.5758 76.8606 23.3813 71.7025 23.3813C66.5445 23.3813 62.35 27.5758 62.35 32.7339V35.8514C62.35 39.8868 64.9233 43.3224 68.512 44.6315L60.1459 52.9976H51.4045C51.2302 50.3992 49.4454 48.1341 46.917 47.4111L40.5275 45.5875V42.8033C42.4356 41.0901 43.645 38.6134 43.645 35.8514V32.7339C43.645 27.5758 39.4506 23.3813 34.2925 23.3813C29.1345 23.3813 24.94 27.5758 24.94 32.7339V35.8514C24.94 38.6119 26.1494 41.0885 28.0575 42.8033V45.589L21.668 47.4126C19.0056 48.1714 17.1463 50.6374 17.1463 53.4079V59.2326H10.9113V68.5851H14.0288V93.5251H0V96.6426H96.6426V93.5251H79.3479ZM65.4675 68.5851V61.4368L76.5127 50.3916C77.3111 49.5932 77.7861 48.5208 77.8926 47.4019C77.9063 47.5108 77.9375 47.6135 77.9375 47.7262V67.0264C77.9375 69.6042 75.8392 71.7026 73.2613 71.7026H60.7913V68.5851H65.4675ZM60.7913 81.0551H68.7335L69.9801 93.5251H60.7913V81.0551ZM71.8662 81.0551H74.9685L76.2152 93.5251H73.1129L71.8662 81.0551ZM81.055 67.0264V52.9976H84.1725V70.1439C84.1725 74.4411 80.676 77.9376 76.3788 77.9376H60.7913V74.8201H73.2613C77.5585 74.8201 81.055 71.3236 81.055 67.0264ZM65.4675 35.8514V32.7339C65.4675 29.2952 68.2638 26.4988 71.7025 26.4988C75.1412 26.4988 77.9375 29.2952 77.9375 32.7339V35.8514C77.9375 39.29 75.1412 42.0864 71.7025 42.0864C68.2638 42.0864 65.4675 39.29 65.4675 35.8514ZM61.4367 56.1151L71.8365 45.7153C72.1622 45.3896 72.6128 45.2039 73.0725 45.2039C74.0361 45.2039 74.82 45.9878 74.82 46.9514C74.82 47.4111 74.6343 47.8617 74.3086 48.1874L63.2634 59.2326H46.7625C45.9025 59.2326 45.2038 58.5339 45.2038 57.6739C45.2038 56.8138 45.9025 56.1151 46.7625 56.1151H61.4367ZM28.0575 32.7339C28.0575 29.2952 30.8538 26.4988 34.2925 26.4988C37.7312 26.4988 40.5275 29.2952 40.5275 32.7339V35.8514C40.5275 39.29 37.7312 42.0864 34.2925 42.0864C30.8538 42.0864 28.0575 39.29 28.0575 35.8514V32.7339ZM34.2925 45.2039C35.387 45.2039 36.4328 45.0044 37.41 44.6581V46.3326C37.0234 46.9293 35.9495 48.3214 34.2925 48.3214C32.6356 48.3214 31.5617 46.9293 31.175 46.3326V44.6581C32.1523 45.0044 33.198 45.2039 34.2925 45.2039ZM20.2638 53.4079C20.2638 52.0219 21.1946 50.7904 22.5243 50.4098L28.9457 48.5756C29.8499 49.7538 31.6096 51.4389 34.2925 51.4389C36.9754 51.4389 38.7351 49.7538 39.6393 48.574L46.0608 50.4083C47.255 50.7501 48.0876 51.7882 48.2543 52.9961H46.7625C44.1847 52.9961 42.0863 55.0945 42.0863 57.6723C42.0863 58.2211 42.1982 58.7417 42.3732 59.2311H20.2638V53.4079ZM14.0288 62.3501H62.35V65.4676H14.0288V62.3501ZM17.1463 74.8201H21.8225V71.7026H17.1463V68.5851H57.6738V71.7026H24.94V74.8201H57.6738V93.5251H53.9611L50.8436 87.2901H23.9764L20.8589 93.5251H17.1463V74.8201ZM50.4752 93.5251H24.3448L25.9036 90.4076H48.9165L50.4752 93.5251Z" fill="black"/>
</mask>
<g mask="url(#mask0)">
<rect width="96.6426" height="98.9807" fill="url(#paint0_linear)"/>
</g>
<defs>
<linearGradient id="paint0_linear" x1="73.3297" y1="25.845" x2="35.6072" y2="33.128" gradientUnits="userSpaceOnUse">
<stop stop-color="#B47E48"/>
<stop offset="0.494792" stop-color="#CFA57B"/>
<stop offset="1" stop-color="#B47E48"/>
</linearGradient>
</defs>
</svg>
