<svg width="97" height="91" viewBox="0 0 97 91" fill="none" xmlns="http://www.w3.org/2000/svg">
<mask id="mask0" mask-type="alpha" maskUnits="userSpaceOnUse" x="0" y="0" width="97" height="91">
<path d="M96.1488 34.591C95.76 34.1377 95.1922 33.8764 94.5922 33.8764H90.3336V10.9174C90.3336 9.34461 89.0544 8.06543 87.4817 8.06543H38.0148L34.0063 1.38564C33.4949 0.530705 32.5577 0 31.5608 0H9.30347C7.73232 0.00161309 6.45314 1.28079 6.45314 2.85194V33.8748H2.05103C1.45419 33.8748 0.886382 34.1345 0.497628 34.5862C0.107261 35.0378 -0.0669521 35.6363 0.0233807 36.2315L7.95654 88.5939C8.11301 89.6021 8.96472 90.3328 9.98257 90.3328H86.659C87.6785 90.3328 88.5302 89.6021 88.6867 88.5891L96.6182 36.238C96.7102 35.646 96.5392 35.0459 96.1488 34.591ZM9.67931 3.22778H31.3495L35.358 9.90757C35.8694 10.7625 36.8066 11.2932 37.8035 11.2932H87.1075V33.8764H85.4944V27.4241H83.8813V22.5848H82.2682V17.7456H14.5186V22.5848H12.9055V27.4241H11.2924V33.8764H9.67931V3.22778ZM14.5186 30.6502H82.2682V33.8764H14.5186V30.6502ZM16.1317 25.811H80.6551V27.4241H16.1317V25.811ZM79.042 22.5848H17.7447V20.9717H79.042V22.5848ZM85.6492 87.1083H10.994L3.41893 37.1026H6.45314H11.2924H85.4944H90.3336H93.2259L85.6492 87.1083Z" fill="#B47E48"/>
<path d="M43.4834 79.0432H77.3582V56.46H43.4834V79.0432ZM46.7096 59.6861H74.132V75.817H46.7096V59.6861Z" fill="#B47E48"/>
<path d="M51.5486 66.1378H58.001C58.893 66.1378 59.6141 65.4167 59.6141 64.5247C59.6141 63.6327 58.893 62.9116 58.001 62.9116H51.5486C50.6566 62.9116 49.9355 63.6327 49.9355 64.5247C49.9355 65.4167 50.6566 66.1378 51.5486 66.1378Z" fill="#B47E48"/>
<path d="M64.4529 66.1378H66.066C66.9581 66.1378 67.6791 65.4167 67.6791 64.5247C67.6791 63.6327 66.9581 62.9116 66.066 62.9116H64.4529C63.5609 62.9116 62.8398 63.6327 62.8398 64.5247C62.8398 65.4167 63.5609 66.1378 64.4529 66.1378Z" fill="#B47E48"/>
<path d="M69.2926 69.3643H51.5486C50.6566 69.3643 49.9355 70.0853 49.9355 70.9773C49.9355 71.8694 50.6566 72.5904 51.5486 72.5904H69.2926C70.1846 72.5904 70.9057 71.8694 70.9057 70.9773C70.9057 70.0853 70.1846 69.3643 69.2926 69.3643Z" fill="#B47E48"/>
</mask>
<g mask="url(#mask0)">
<rect x="-5.28516" width="107.967" height="90.4127" fill="url(#paint0_linear)"/>
</g>
<defs>
<linearGradient id="paint0_linear" x1="76.637" y1="23.6078" x2="35.2321" y2="33.3848" gradientUnits="userSpaceOnUse">
<stop stop-color="#B47E48"/>
<stop offset="0.494792" stop-color="#CFA57B"/>
<stop offset="1" stop-color="#B47E48"/>
</linearGradient>
</defs>
</svg>
