<svg width="97" height="71" viewBox="0 0 97 71" fill="none" xmlns="http://www.w3.org/2000/svg">
<mask id="mask0" mask-type="alpha" maskUnits="userSpaceOnUse" x="0" y="0" width="97" height="71">
<path d="M89.8502 0H6.79236C3.04746 0 0 3.04746 0 6.79236V64.0788C0 67.8237 3.04746 70.8712 6.79236 70.8712H89.8502C93.5951 70.8712 96.6426 67.8237 96.6426 64.0788V6.79236C96.6426 3.04746 93.5951 0 89.8502 0ZM93.4211 64.0788C93.4211 66.0487 91.8201 67.6498 89.8502 67.6498H6.79236C4.82246 67.6498 3.22142 66.0487 3.22142 64.0788V6.79236C3.22142 4.82246 4.82246 3.22142 6.79236 3.22142H89.8502C91.8201 3.22142 93.4211 4.82246 93.4211 6.79236V64.0788Z" fill="black"/>
<path d="M36.4698 45.4997L30.6036 42.5038V41.8804C33.2259 40.4485 35.0701 38.0904 36.0994 34.8513C37.6602 34.0234 38.6572 32.4111 38.6572 30.6039V28.9931C38.6572 27.5016 37.963 26.118 36.8033 25.2096C35.7982 19.1211 31.5491 16.035 24.1608 16.035C23.8113 16.035 23.4698 16.0479 23.1364 16.0737C21.2003 16.2299 19.3303 15.8127 17.9435 14.8817C17.2847 14.4372 16.787 14.0055 16.4697 13.6044C15.7545 12.6895 14.2646 12.6493 13.5011 13.5046C13.1355 13.9137 12.9632 14.4646 13.0276 15.0122C13.0952 15.6146 13.1967 16.3153 13.3497 17.0836C13.6606 18.654 13.6606 18.654 13.2241 19.593C13.0598 19.949 12.8568 20.3823 12.6185 20.967C12.0853 22.2733 11.7068 23.7036 11.4894 25.2305C10.3474 26.1406 9.66442 27.5161 9.66442 28.9931V30.6039C9.66442 32.4111 10.6614 34.0234 12.2222 34.8513C13.2515 38.092 15.0957 40.4501 17.718 41.8804V42.4861L11.6472 45.4788C9.43087 46.6868 8.05371 49.0062 8.05371 51.5318V53.666C8.05371 54.9594 8.05371 57.9859 24.1608 57.9859C40.2679 57.9859 40.2679 54.9594 40.2679 53.666V51.6607C40.2679 49.032 38.8086 46.6691 36.4698 45.4997Z" fill="black"/>
<path d="M48.3216 24.1609H64.4287C65.3195 24.1609 66.0394 23.4409 66.0394 22.5502C66.0394 21.6594 65.3195 20.9395 64.4287 20.9395H48.3216C47.4309 20.9395 46.7109 21.6594 46.7109 22.5502C46.7109 23.4409 47.4309 24.1609 48.3216 24.1609Z" fill="black"/>
<path d="M70.8705 24.1609H72.4812C73.3719 24.1609 74.0919 23.4409 74.0919 22.5502C74.0919 21.6594 73.3719 20.9395 72.4812 20.9395H70.8705C69.9798 20.9395 69.2598 21.6594 69.2598 22.5502C69.2598 23.4409 69.9798 24.1609 70.8705 24.1609Z" fill="black"/>
<path d="M49.9324 48.3213H48.3216C47.4309 48.3213 46.7109 49.0413 46.7109 49.932C46.7109 50.8227 47.4309 51.5427 48.3216 51.5427H49.9324C50.8231 51.5427 51.5431 50.8227 51.5431 49.932C51.5431 49.0413 50.8231 48.3213 49.9324 48.3213Z" fill="black"/>
<path d="M59.5958 48.3213H56.3744C55.4837 48.3213 54.7637 49.0413 54.7637 49.932C54.7637 50.8227 55.4837 51.5427 56.3744 51.5427H59.5958C60.4865 51.5427 61.2065 50.8227 61.2065 49.932C61.2065 49.0413 60.4865 48.3213 59.5958 48.3213Z" fill="black"/>
<path d="M67.6492 48.3213H66.0384C65.1477 48.3213 64.4277 49.0413 64.4277 49.932C64.4277 50.8227 65.1477 51.5427 66.0384 51.5427H67.6492C68.5399 51.5427 69.2599 50.8227 69.2599 49.932C69.2599 49.0413 68.5399 48.3213 67.6492 48.3213Z" fill="black"/>
<path d="M77.3136 48.3213H74.0922C73.2014 48.3213 72.4814 49.0413 72.4814 49.932C72.4814 50.8227 73.2014 51.5427 74.0922 51.5427H77.3136C78.2043 51.5427 78.9243 50.8227 78.9243 49.932C78.9243 49.0413 78.2043 48.3213 77.3136 48.3213Z" fill="black"/>
<path d="M82.6126 48.7888C82.3211 49.0932 82.1455 49.5136 82.1455 49.9324C82.1455 50.3512 82.3211 50.7699 82.6126 51.076C82.917 51.3659 83.3374 51.5431 83.7562 51.5431C84.175 51.5431 84.5938 51.3659 84.8998 51.076C85.1897 50.7699 85.3669 50.3512 85.3669 49.9324C85.3669 49.5136 85.1897 49.0932 84.8998 48.7888C84.2877 48.1928 83.2086 48.1928 82.6126 48.7888Z" fill="black"/>
<path d="M83.7572 30.6045H48.3216C47.4309 30.6045 46.7109 31.3245 46.7109 32.2152C46.7109 33.1059 47.4309 33.8259 48.3216 33.8259H83.7572C84.648 33.8259 85.368 33.1059 85.368 32.2152C85.368 31.3245 84.648 30.6045 83.7572 30.6045Z" fill="black"/>
<path d="M83.7572 40.2676H48.3216C47.4309 40.2676 46.7109 40.9876 46.7109 41.8783C46.7109 42.769 47.4309 43.489 48.3216 43.489H83.7572C84.648 43.489 85.368 42.769 85.368 41.8783C85.368 40.9876 84.648 40.2676 83.7572 40.2676Z" fill="black"/>
</mask>
<g mask="url(#mask0)">
<rect x="-1.54102" width="101.685" height="70.8712" fill="url(#paint0_linear)"/>
</g>
<defs>
<linearGradient id="paint0_linear" x1="75.6145" y1="18.5053" x2="37.5115" y2="29.3157" gradientUnits="userSpaceOnUse">
<stop stop-color="#B47E48"/>
<stop offset="0.494792" stop-color="#CFA57B"/>
<stop offset="1" stop-color="#B47E48"/>
</linearGradient>
</defs>
</svg>
