<svg width="100" height="100" viewBox="0 0 100 100" fill="none" xmlns="http://www.w3.org/2000/svg">
<g clip-path="url(#clip0)">
<mask id="mask0" mask-type="alpha" maskUnits="userSpaceOnUse" x="3" y="0" width="94" height="101">
<path d="M60.0039 34.9759C60.0039 35.8962 60.7491 36.6431 61.6712 36.6431H78.3445C79.2665 36.6431 80.0117 35.8962 80.0117 34.9759C80.0117 34.0556 79.2665 33.3086 78.3445 33.3086H61.6712C60.7491 33.3084 60.0039 34.0554 60.0039 34.9759Z" fill="black"/>
<path d="M70.0078 44.9798C70.0078 45.9001 70.753 46.647 71.6751 46.647H81.6791C82.6011 46.647 83.3463 45.9001 83.3463 44.9798C83.3463 44.0595 82.6011 43.3125 81.6791 43.3125H71.6751C70.753 43.3123 70.0078 44.0593 70.0078 44.9798Z" fill="black"/>
<path d="M68.3409 26.6392C69.2629 26.6392 70.0081 25.8922 70.0081 24.972C70.0081 24.0517 69.2629 23.3047 68.3409 23.3047H65.0061C64.0841 23.3047 63.3389 24.0517 63.3389 24.972C63.3389 25.8922 64.0841 26.6392 65.0061 26.6392H68.3409Z" fill="black"/>
<path d="M48.3323 43.3125C47.4103 43.3125 46.665 44.0595 46.665 44.9798C46.665 45.9001 47.4103 46.647 48.3323 46.647H65.0056C65.9276 46.647 66.6729 45.9001 66.6729 44.9798C66.6729 44.0595 65.9276 43.3125 65.0056 43.3125H48.3323Z" fill="black"/>
<path d="M56.6697 89.9976H24.9904C22.2326 89.9976 19.9884 87.7534 19.9884 84.9956V8.29813C19.9884 7.37784 19.2432 6.63086 18.3211 6.63086C13.7243 6.63086 9.98438 10.3706 9.98438 14.9676C9.98438 15.8879 10.7296 16.6349 11.6516 16.6349C12.5737 16.6349 13.3189 15.8879 13.3189 14.9676C13.3189 12.7933 14.7128 10.9392 16.6536 10.2507V84.9956C16.6536 89.5924 20.3934 93.3324 24.9904 93.3324H56.6697C57.5917 93.3324 58.3369 92.5854 58.3369 91.6651C58.3369 90.7448 57.5917 89.9976 56.6697 89.9976Z" fill="black"/>
<path d="M31.6595 36.6431H55.0022C55.9242 36.6431 56.6695 35.8962 56.6695 34.9759C56.6695 34.0556 55.9242 33.3086 55.0022 33.3086H31.6595C30.7374 33.3086 29.9922 34.0556 29.9922 34.9759C29.9922 35.8962 30.7374 36.6431 31.6595 36.6431Z" fill="black"/>
<path d="M31.6595 26.6392H38.3287C39.2508 26.6392 39.996 25.8922 39.996 24.972C39.996 24.0517 39.2508 23.3047 38.3287 23.3047H31.6595C30.7374 23.3047 29.9922 24.0517 29.9922 24.972C29.9922 25.8922 30.7374 26.6392 31.6595 26.6392Z" fill="black"/>
<path d="M58.3361 23.3047H44.9973C44.0753 23.3047 43.3301 24.0517 43.3301 24.972C43.3301 25.8922 44.0753 26.6392 44.9973 26.6392H58.3361C59.2581 26.6392 60.0033 25.8922 60.0033 24.972C60.0035 24.0517 59.2581 23.3047 58.3361 23.3047Z" fill="black"/>
<path d="M81.6792 0H18.3205C10.0654 0 3.34611 6.70093 3.31445 14.9476V14.9675V14.9859V15.006V15.0259C3.33614 20.3431 6.20565 25.2967 10.8157 27.9645C11.6127 28.4247 12.6315 28.1529 13.0932 27.3576C13.5566 26.5606 13.2815 25.5403 12.4863 25.08C8.89169 22.9975 6.65583 19.1327 6.64919 14.9861C6.66091 8.56007 11.8913 3.33473 18.3205 3.33473H81.6792C88.1134 3.33473 93.3505 8.57023 93.3505 15.006V85.0341C93.3505 85.8793 93.1137 86.7281 92.6686 87.485C92.2033 88.2787 92.4667 89.3008 93.2604 89.7676C93.5271 89.9243 93.8173 89.9978 94.1041 89.9978C94.676 89.9978 95.2329 89.7043 95.543 89.1758C96.2899 87.9069 96.685 86.4747 96.685 85.0341V15.006C96.6852 6.73102 89.9542 0 81.6792 0Z" fill="black"/>
<path d="M86.6809 76.6593C86.6809 71.142 82.1941 66.6553 76.6769 66.6553C71.1596 66.6553 66.6729 71.142 66.6729 76.6593C66.6729 82.1765 71.1596 86.6633 76.6769 86.6633C82.1941 86.6633 86.6809 82.1765 86.6809 76.6593ZM76.6769 83.3286C72.9986 83.3286 70.0076 80.3373 70.0076 76.6593C70.0076 72.9812 72.9988 69.99 76.6769 69.99C80.3551 69.99 83.3461 72.9812 83.3461 76.6593C83.3461 80.3373 80.3551 83.3286 76.6769 83.3286Z" fill="black"/>
<path d="M73.6678 88.3324C72.8725 87.8723 71.852 88.1456 71.3901 88.9426L67.8004 95.1635L67.2302 94.3032C66.9418 93.8647 66.4633 93.5878 65.9397 93.5579L64.9092 93.4962L68.5591 87.1771C69.0192 86.3801 68.7459 85.3597 67.9489 84.8994C67.1519 84.4375 66.1316 84.711 65.6697 85.5096L60.6727 94.1648C60.3843 94.665 60.3759 95.2803 60.6493 95.7887C60.9226 96.2971 61.4397 96.6291 62.0182 96.6623L64.9076 96.8356L66.5032 99.2516C66.8117 99.7202 67.3352 100 67.8938 100H67.9456C68.5208 99.9818 69.0493 99.6666 69.3395 99.1664L74.2797 90.6097C74.7399 89.8131 74.4665 88.7925 73.6678 88.3324Z" fill="black"/>
<path d="M87.7279 85.5877C87.266 84.7891 86.2439 84.5156 85.4502 84.9775C84.6516 85.4377 84.3781 86.4582 84.8382 87.255L88.4448 93.4958L87.4143 93.5575C86.8908 93.5891 86.4123 93.866 86.1222 94.3027L85.5553 95.163L81.984 88.9738C81.5205 88.1768 80.5 87.9035 79.7048 88.3636C78.9078 88.8238 78.6344 89.8443 79.0945 90.6413L84.0164 99.1664C84.3066 99.6666 84.8351 99.9817 85.4103 100H85.4621C86.019 100 86.5442 99.7199 86.8543 99.2516L88.4483 96.8373L91.3361 96.6623C91.9147 96.6288 92.4315 96.2971 92.7051 95.7887C92.9786 95.2803 92.9684 94.665 92.6818 94.1648L87.7279 85.5877Z" fill="black"/>
<path d="M31.6595 46.647H41.6635C42.5855 46.647 43.3307 45.9001 43.3307 44.9798C43.3307 44.0595 42.5855 43.3125 41.6635 43.3125H31.6595C30.7374 43.3125 29.9922 44.0595 29.9922 44.9798C29.9922 45.9001 30.7374 46.647 31.6595 46.647Z" fill="black"/>
<path d="M31.6595 56.6509H51.6675C52.5895 56.6509 53.3347 55.904 53.3347 54.9837C53.3347 54.0634 52.5895 53.3164 51.6675 53.3164H31.6595C30.7374 53.3164 29.9922 54.0634 29.9922 54.9837C29.9922 55.904 30.7374 56.6509 31.6595 56.6509Z" fill="black"/>
<path d="M31.8353 77.4041C32.2454 78.2277 33.2476 78.5612 34.0711 78.1511C34.8947 77.7392 35.23 76.7372 34.8164 75.9134C33.1657 72.6121 32.7956 69.651 33.8226 67.9886C34.3695 67.1033 35.3232 66.6547 36.6605 66.6547C37.4557 66.6547 37.7525 66.928 37.9393 67.1949C39.1814 68.9857 38.001 74.4394 36.7656 77.7407C36.4905 78.476 36.7656 79.3031 37.4258 79.7283C38.0827 80.1501 38.9514 80.0585 39.5067 79.5049C40.2187 78.7947 40.9907 78.086 41.6627 77.5108V78.3261C41.6627 78.9996 42.0679 79.6083 42.6914 79.865C43.3149 80.1251 44.0302 79.9817 44.5087 79.5049C45.2707 78.7447 46.1543 77.9992 46.898 77.4625C46.878 77.5041 46.8579 77.5442 46.838 77.5825C46.5828 78.0993 46.6111 78.713 46.9148 79.203C47.22 79.6933 47.7551 79.9934 48.3319 79.9934H55.0012C55.9233 79.9934 56.6685 79.2464 56.6685 78.3261C56.6685 77.4058 55.9233 76.6589 55.0012 76.6589H50.6612C50.7962 75.8652 50.763 75.0582 50.3611 74.408C49.9359 73.7194 49.1956 73.3241 48.3319 73.3241C47.3014 73.3241 46.0894 73.9509 44.9823 74.728C44.8974 74.001 44.4671 73.4025 43.8135 73.1324C43.3684 72.949 42.7948 72.709 41.4026 73.5443C41.9511 70.6715 42.1113 67.3602 40.6806 65.2961C40.0554 64.394 38.8516 63.3203 36.6607 63.3203C34.163 63.3203 32.1471 64.3557 30.9851 66.2365C29.3228 68.9274 29.6311 72.9974 31.8353 77.4041Z" fill="black"/>
<path d="M76.6768 54.9837C76.6768 54.0634 75.9315 53.3164 75.0095 53.3164H58.3362C57.4142 53.3164 56.6689 54.0634 56.6689 54.9837C56.6689 55.904 57.4142 56.6509 58.3362 56.6509H75.0095C75.9315 56.6509 76.6768 55.904 76.6768 54.9837Z" fill="black"/>
</mask>
<g mask="url(#mask0)">
<rect x="3.33301" width="96.6667" height="100" fill="url(#paint0_linear)"/>
</g>
</g>
<defs>
<linearGradient id="paint0_linear" x1="76.681" y1="26.1111" x2="38.9222" y2="33.3287" gradientUnits="userSpaceOnUse">
<stop stop-color="#B47E48"/>
<stop offset="0.494792" stop-color="#CFA57B"/>
<stop offset="1" stop-color="#B47E48"/>
</linearGradient>
<clipPath id="clip0">
<rect width="100" height="100" fill="white"/>
</clipPath>
</defs>
</svg>
