<svg width="148" height="111" viewBox="0 0 148 111" fill="none" xmlns="http://www.w3.org/2000/svg">
<path d="M2.19319 96.4399C1.49901 95.7627 0.947354 94.9534 0.570698 94.0597C0.194041 93.1659 0 92.2059 0 91.2361C0 90.2663 0.194041 89.3062 0.570698 88.4125C0.947354 87.5188 1.49901 86.7095 2.19319 86.0322C3.70993 84.6631 5.69823 83.9349 7.74048 84.0007C8.9851 83.9849 10.2164 84.2579 11.3378 84.7982V88.2907C10.2623 87.6297 9.0201 87.2904 7.75794 87.3128C6.67882 87.2832 5.63207 87.6831 4.84751 88.4246C4.46679 88.7876 4.16647 89.2264 3.96594 89.7127C3.76541 90.199 3.66913 90.7219 3.68333 91.2477C3.66737 91.779 3.76563 92.3075 3.97149 92.7976C4.17736 93.2877 4.48601 93.7278 4.87661 94.0883C5.71411 94.829 6.80355 95.2206 7.92092 95.1826C9.22893 95.2271 10.5147 94.8361 11.5764 94.0708V97.6041C10.3914 98.1954 9.08217 98.4948 7.75794 98.4772C5.70853 98.5485 3.71213 97.8176 2.19319 96.4399Z" fill="#D0D0D0"/>
<path d="M21.169 98.4656C20.202 98.493 19.2393 98.3262 18.3378 97.9751C17.4364 97.624 16.6145 97.0956 15.9208 96.4213C15.2271 95.747 14.6756 94.9405 14.2991 94.0493C13.9225 93.1582 13.7285 92.2006 13.7285 91.2331C13.7285 90.2657 13.9225 89.3081 14.2991 88.417C14.6756 87.5258 15.2271 86.7192 15.9208 86.0449C16.6145 85.3706 17.4364 84.8423 18.3378 84.4912C19.2393 84.1401 20.202 83.9733 21.169 84.0007C22.1361 83.9733 23.0988 84.1401 24.0003 84.4912C24.9017 84.8423 25.7236 85.3706 26.4173 86.0449C27.111 86.7192 27.6625 87.5258 28.039 88.417C28.4156 89.3081 28.6096 90.2657 28.6096 91.2331C28.6096 92.2006 28.4156 93.1582 28.039 94.0493C27.6625 94.9405 27.111 95.747 26.4173 96.4213C25.7236 97.0956 24.9017 97.624 24.0003 97.9751C23.0988 98.3262 22.1361 98.493 21.169 98.4656ZM21.169 95.171C21.6569 95.1818 22.1415 95.0883 22.5903 94.8965C23.039 94.7048 23.4416 94.4193 23.771 94.0592C24.4508 93.2757 24.8251 92.2733 24.8251 91.2361C24.8251 90.1988 24.4508 89.1964 23.771 88.4129C23.4406 88.0549 23.0375 87.7716 22.5888 87.5819C22.1401 87.3922 21.6561 87.3004 21.169 87.3128C20.6779 87.303 20.1902 87.397 19.7378 87.5886C19.2855 87.7802 18.8786 88.065 18.5438 88.4246C17.8785 89.2148 17.5136 90.2146 17.5136 91.2477C17.5136 92.2807 17.8785 93.2806 18.5438 94.0708C18.8797 94.4282 19.287 94.7109 19.7393 94.9005C20.1916 95.09 20.6788 95.1822 21.169 95.171Z" fill="#D0D0D0"/>
<path d="M29.8945 99.7289V95.0722H31.2275C32.2753 93.3667 32.8166 90.6018 32.8166 86.8066V84.3036H43.1836V95.0722H45.0113V99.7289H41.6352V98.1922H33.2532V99.7289H29.8945ZM39.6096 95.0722V87.4469H36.3732C36.386 90.0408 35.963 92.6185 35.1217 95.0722H39.6096Z" fill="#D0D0D0"/>
<path d="M47.8574 98.1922V84.2803H58.4281V87.4236H51.4431V89.3095H57.0078V92.3306H51.4314V95.0489H58.5853V98.1922H47.8574Z" fill="#D0D0D0"/>
<path d="M61.6064 98.1919V84.28H65.1805V92.1324L70.9198 84.28H74.0223V98.1919H70.4425V90.2639L64.6217 98.1919H61.6064ZM66.4552 80.0715C66.4776 80.4091 66.6274 80.7255 66.8744 80.9567C67.1214 81.1879 67.447 81.3165 67.7853 81.3165C68.1236 81.3165 68.4492 81.1879 68.6962 80.9567C68.9432 80.7255 69.093 80.4091 69.1154 80.0715H71.5834C71.6002 80.5521 71.5115 81.0304 71.3234 81.4729C71.1353 81.9154 70.8525 82.3113 70.4949 82.6327C69.7541 83.2658 68.8028 83.5981 67.829 83.5641C66.8502 83.5952 65.8945 83.2635 65.1455 82.6327C64.7936 82.3078 64.5157 81.9108 64.3309 81.4688C64.1461 81.0269 64.0586 80.5503 64.0745 80.0715H66.4552Z" fill="#D0D0D0"/>
<path d="M79.4539 96.44C78.7598 95.7627 78.2081 94.9534 77.8314 94.0597C77.4548 93.166 77.2607 92.206 77.2607 91.2362C77.2607 90.2663 77.4548 89.3063 77.8314 88.4126C78.2081 87.5189 78.7598 86.7096 79.4539 86.0323C80.9704 84.6626 82.9589 83.9344 85.0012 84.0008C86.244 83.9844 87.4736 84.2574 88.5927 84.7983V88.2908C87.528 87.6209 86.294 87.2695 85.0361 87.278C83.957 87.2484 82.9103 87.6482 82.1257 88.3898C81.745 88.7527 81.4447 89.1915 81.2441 89.6778C81.0436 90.1641 80.9473 90.687 80.9615 91.2129C80.9456 91.7442 81.0438 92.2727 81.2497 92.7627C81.4556 93.2528 81.7642 93.6929 82.1548 94.0535C82.9908 94.7927 84.0779 95.1842 85.1933 95.1478C86.5016 95.1941 87.7879 94.8028 88.8488 94.036V97.5693C87.6658 98.1605 86.3585 98.4599 85.0361 98.4424C82.9856 98.5278 80.9827 97.8093 79.4539 96.44Z" fill="#D0D0D0"/>
<path d="M95.4489 98.1922V87.4236H91.2754V84.2803H103.22V87.4236H99.0288V98.1922H95.4489Z" fill="#D0D0D0"/>
<path d="M106.078 98.1922V84.2803H112.854C115.397 84.2803 117.184 85.5143 117.184 87.7728C117.202 88.333 117.058 88.8864 116.769 89.3666C116.48 89.8467 116.058 90.2332 115.554 90.4795C116.283 90.6648 116.927 91.0916 117.382 91.6903C117.943 92.3941 118.233 93.2763 118.197 94.1758C118.214 94.7343 118.099 95.289 117.862 95.7947C117.624 96.3005 117.27 96.7429 116.829 97.0862C115.795 97.86 114.522 98.2471 113.232 98.1805L106.078 98.1922ZM109.658 89.6064H112.33C113.203 89.6064 113.762 89.1524 113.762 88.4131C113.762 87.6739 113.18 87.1849 112.33 87.1849H109.67L109.658 89.6064ZM109.658 95.2119H112.568C113.657 95.2119 114.315 94.6705 114.315 93.7392C114.315 92.8079 113.616 92.2491 112.568 92.2491H109.658V95.2119Z" fill="#D0D0D0"/>
<path d="M121.218 98.1922V84.2803H124.798V92.1327L130.537 84.2803H133.639V98.1922H130.06V90.2642L124.239 98.1922H121.218Z" fill="#D0D0D0"/>
<path d="M137.296 98.1922V84.2803H147.867V87.4236H140.852V89.3095H146.411V92.3306H140.852V95.0489H148V98.1922H137.296Z" fill="#D0D0D0"/>
<path d="M4.37036 110.893V109.898H0.569336V105.009H1.59381V108.996H3.63693V105.009H4.64394V108.996H5.31916V110.893H4.37036Z" fill="#DCA366"/>
<path d="M7.10059 109.898V105.009H10.6862V105.94H8.1367V106.883H10.2147V107.768H8.1367V109.025H10.7968V109.927L7.10059 109.898Z" fill="#DCA366"/>
<path d="M12.6123 109.898V105.009H13.6193V106.842H15.8254V105.009H16.8266V109.898H15.8254V107.756H13.6193V109.898H12.6123Z" fill="#DCA366"/>
<path d="M18.6143 105.009H22.6889V105.94H21.1754V109.927H20.1684V105.94H18.6143V105.009Z" fill="#DCA366"/>
<path d="M24.5166 109.898V105.008H26.6529C27.1053 104.984 27.5502 105.132 27.8985 105.422C28.0481 105.554 28.1668 105.717 28.2463 105.9C28.3257 106.083 28.364 106.281 28.3584 106.481C28.3645 106.682 28.3266 106.882 28.2471 107.067C28.1677 107.252 28.0487 107.418 27.8985 107.552C27.5502 107.842 27.1053 107.989 26.6529 107.965H25.5236V109.898H24.5166ZM25.5236 107.104H26.583C27.0661 107.104 27.3514 106.888 27.3514 106.522C27.3514 106.155 27.0661 105.94 26.583 105.94H25.5236V107.104Z" fill="#DCA366"/>
<path d="M33.5846 109.281C33.1054 108.793 32.8369 108.137 32.8369 107.453C32.8369 106.769 33.1054 106.113 33.5846 105.625C33.8403 105.387 34.1406 105.201 34.4683 105.079C34.7959 104.957 35.1445 104.902 35.4939 104.915C35.9428 104.91 36.3863 105.013 36.7861 105.218V106.231C36.4045 105.98 35.9562 105.85 35.4997 105.858C35.2857 105.852 35.0727 105.889 34.8729 105.966C34.6731 106.043 34.4905 106.158 34.3355 106.306C34.1812 106.457 34.0604 106.639 33.9812 106.839C33.9019 107.04 33.866 107.255 33.8757 107.47C33.8659 107.687 33.9036 107.904 33.986 108.105C34.0684 108.306 34.1937 108.487 34.353 108.635C34.5118 108.785 34.6992 108.903 34.9042 108.98C35.1092 109.057 35.3275 109.092 35.5463 109.083C36.0281 109.099 36.501 108.949 36.8851 108.658V109.671C36.4607 109.908 35.9801 110.027 35.4939 110.014C35.1429 110.025 34.7934 109.965 34.4656 109.839C34.1378 109.713 33.8384 109.523 33.5846 109.281Z" fill="#DCA366"/>
<path d="M38.7715 109.898V105.008H40.9077C41.3602 104.984 41.8051 105.132 42.1534 105.422C42.303 105.554 42.4217 105.717 42.5012 105.9C42.5806 106.083 42.6189 106.281 42.6133 106.481C42.6194 106.682 42.5814 106.882 42.502 107.067C42.4226 107.252 42.3036 107.418 42.1534 107.552C41.8051 107.842 41.3602 107.989 40.9077 107.965H39.7785V109.898H38.7715ZM39.7785 107.104H40.8379C41.321 107.104 41.6062 106.888 41.6062 106.522C41.6062 106.155 41.321 105.94 40.8379 105.94H39.7785V107.104Z" fill="#DCA366"/>
<path d="M44.9705 105.655C45.4555 105.181 46.1062 104.917 46.7837 104.917C47.4613 104.917 48.112 105.181 48.5969 105.655C48.8318 105.891 49.0168 106.171 49.1408 106.481C49.2648 106.79 49.3253 107.12 49.3187 107.453C49.3235 107.787 49.2622 108.118 49.1383 108.428C49.0144 108.737 48.8304 109.02 48.5969 109.258C48.112 109.731 47.4613 109.996 46.7837 109.996C46.1062 109.996 45.4555 109.731 44.9705 109.258C44.7378 109.019 44.5547 108.737 44.4318 108.427C44.309 108.117 44.2487 107.786 44.2546 107.453C44.2469 107.121 44.3063 106.79 44.4293 106.481C44.5523 106.172 44.7364 105.891 44.9705 105.655ZM46.7866 109.054C46.9879 109.058 47.1876 109.019 47.3731 108.941C47.5585 108.863 47.7256 108.747 47.8635 108.6C48.1403 108.282 48.2928 107.875 48.2928 107.453C48.2928 107.032 48.1403 106.624 47.8635 106.307C47.7218 106.165 47.5535 106.052 47.3683 105.975C47.183 105.898 46.9843 105.858 46.7837 105.858C46.5831 105.858 46.3845 105.898 46.1992 105.975C46.0139 106.052 45.8456 106.165 45.704 106.307C45.4272 106.624 45.2747 107.032 45.2747 107.453C45.2747 107.875 45.4272 108.282 45.704 108.6C45.843 108.747 46.0111 108.863 46.1975 108.941C46.3839 109.019 46.5845 109.058 46.7866 109.054Z" fill="#DCA366"/>
<path d="M54.1211 109.898V105.009H55.1281V108.193L57.4914 105.009H58.3587V109.898H57.3517V106.691L54.9535 109.898H54.1211Z" fill="#DCA366"/>
<path d="M62.8525 108.949C62.9671 108.987 63.0871 109.005 63.2076 109.002C63.4754 109.002 63.65 108.821 63.7373 108.466C63.8583 107.798 63.9129 107.119 63.9003 106.441V105.009H67.3521V109.898H66.3451V105.94H64.8666V106.929C64.8968 107.737 64.7642 108.543 64.4766 109.299C64.3614 109.513 64.1859 109.689 63.9718 109.805C63.7576 109.921 63.5142 109.972 63.2716 109.951C63.1311 109.955 62.9909 109.934 62.8584 109.886L62.8525 108.949Z" fill="#DCA366"/>
<path d="M69.4707 109.898V105.009H70.4719V108.193L72.841 105.009H73.7083V109.898H72.7071V106.691L70.3147 109.898H69.4707Z" fill="#DCA366"/>
<path d="M79.6166 110.893V109.898H75.833V105.009H76.8226V108.996H78.8657V105.009H79.8727V108.996H80.5537V110.893H79.6166Z" fill="#DCA366"/>
<path d="M82.3467 109.898V105.009H85.9382V105.94H83.3537V106.883H85.4317V107.768H83.3537V109.025H86.0138V109.927L82.3467 109.898Z" fill="#DCA366"/>
<path d="M87.8818 109.898V105.009H88.8888V106.842H91.095V105.009H92.0903V109.898H91.095V107.756H88.8714V109.898H87.8818Z" fill="#DCA366"/>
<path d="M93.9121 109.543V108.565C94.3957 108.88 94.9589 109.052 95.5361 109.06C96.2812 109.06 96.7003 108.798 96.7003 108.35C96.7003 107.902 96.3045 107.768 95.6584 107.768H95.0414V106.924H95.7748C96.2987 106.924 96.5664 106.743 96.5664 106.388C96.5664 106.033 96.2172 105.87 95.6526 105.87C95.1097 105.867 94.5735 105.991 94.0867 106.231V105.305C94.5856 105.052 95.1399 104.928 95.6991 104.945C96.1797 104.917 96.6555 105.052 97.0496 105.329C97.2088 105.442 97.3382 105.592 97.4264 105.767C97.5146 105.941 97.5591 106.134 97.556 106.33C97.5558 106.541 97.4925 106.746 97.3742 106.921C97.2559 107.095 97.0881 107.23 96.8924 107.308C97.1374 107.388 97.3507 107.544 97.5013 107.753C97.652 107.962 97.7323 108.214 97.7306 108.472C97.7284 108.688 97.6745 108.901 97.5732 109.093C97.4719 109.284 97.3263 109.449 97.1485 109.572C96.7108 109.891 96.1757 110.048 95.6351 110.014C95.0278 110.023 94.4306 109.859 93.9121 109.543Z" fill="#DCA366"/>
<path d="M99.6406 109.898V105.009H100.648V108.193L103.017 105.009H103.884V109.898H102.889V106.691L100.49 109.898H99.6406Z" fill="#DCA366"/>
<path d="M106.008 109.898V105.009H108.144C108.595 104.981 109.04 105.129 109.384 105.422C109.535 105.553 109.655 105.716 109.736 105.899C109.817 106.082 109.855 106.281 109.85 106.481C109.856 106.683 109.818 106.884 109.737 107.069C109.657 107.254 109.536 107.419 109.384 107.552C109.04 107.845 108.595 107.993 108.144 107.966H107.015V109.898H106.008ZM107.015 107.104H108.074C108.557 107.104 108.843 106.889 108.843 106.522C108.843 106.155 108.557 105.94 108.074 105.94H107.015V107.104Z" fill="#DCA366"/>
<path d="M112.208 105.654C112.443 105.412 112.725 105.221 113.038 105.094C113.351 104.967 113.687 104.906 114.024 104.915C114.36 104.906 114.694 104.966 115.005 105.094C115.315 105.221 115.596 105.412 115.828 105.654C116.065 105.889 116.252 106.17 116.377 106.479C116.502 106.788 116.563 107.12 116.556 107.453C116.561 107.787 116.5 108.119 116.375 108.429C116.25 108.739 116.064 109.021 115.828 109.258C115.596 109.5 115.315 109.691 115.005 109.818C114.694 109.946 114.36 110.007 114.024 109.997C113.687 110.006 113.351 109.946 113.038 109.818C112.725 109.691 112.443 109.5 112.208 109.258C111.973 109.02 111.788 108.738 111.664 108.428C111.54 108.119 111.48 107.787 111.486 107.453C111.478 107.12 111.538 106.789 111.662 106.48C111.786 106.17 111.972 105.89 112.208 105.654ZM114.024 109.054C114.224 109.058 114.423 109.019 114.608 108.941C114.792 108.863 114.958 108.747 115.095 108.6C115.372 108.282 115.524 107.875 115.524 107.453C115.524 107.032 115.372 106.624 115.095 106.306C114.958 106.16 114.792 106.045 114.607 105.968C114.423 105.891 114.224 105.853 114.024 105.858C113.822 105.853 113.621 105.89 113.435 105.967C113.248 106.044 113.08 106.16 112.941 106.306C112.664 106.624 112.512 107.032 112.512 107.453C112.512 107.875 112.664 108.282 112.941 108.6C113.08 108.747 113.248 108.864 113.434 108.942C113.621 109.02 113.822 109.058 114.024 109.054Z" fill="#DCA366"/>
<path d="M118.512 109.898V105.009H120.805C121.702 105.009 122.289 105.451 122.289 106.231C122.297 106.437 122.243 106.64 122.133 106.813C122.022 106.987 121.862 107.123 121.672 107.203C121.947 107.263 122.194 107.415 122.371 107.634C122.572 107.879 122.676 108.19 122.662 108.507C122.668 108.699 122.63 108.89 122.55 109.064C122.47 109.239 122.351 109.393 122.202 109.514C121.85 109.786 121.412 109.923 120.968 109.898H118.512ZM119.519 106.924H120.648C121.067 106.924 121.317 106.726 121.317 106.394C121.317 106.062 121.067 105.847 120.648 105.847H119.519V106.924ZM119.519 109.031H120.782C121.277 109.031 121.573 108.81 121.573 108.396C121.573 107.983 121.277 107.756 120.782 107.756H119.519V109.031Z" fill="#DCA366"/>
<path d="M124.129 109.898L126.224 104.985H127.191L129.28 109.898H128.215L127.732 108.769H125.666L125.182 109.898H124.129ZM125.98 107.936H127.412L126.702 106.243L125.98 107.936Z" fill="#DCA366"/>
<path d="M130.956 109.898V105.009H131.963V106.842H134.169V105.009H135.165V109.898H134.169V107.756H131.963V109.898H130.956Z" fill="#DCA366"/>
<path d="M137.318 109.898V105.009H138.325V108.193L140.689 105.009H141.556V109.898H140.555V106.691L138.162 109.898H137.318Z" fill="#DCA366"/>
<path d="M143.268 109.898L144.793 107.808C144.495 107.731 144.233 107.555 144.048 107.31C143.863 107.065 143.767 106.765 143.774 106.458C143.769 106.261 143.808 106.067 143.886 105.887C143.964 105.707 144.081 105.546 144.228 105.416C144.57 105.128 145.01 104.982 145.456 105.008H147.721V109.898H146.714V107.925H145.864L144.426 109.898H143.268ZM146.714 107.075V105.91H145.509C145.055 105.91 144.781 106.132 144.781 106.493C144.781 106.853 145.055 107.075 145.509 107.075H146.714Z" fill="#DCA366"/>
<path d="M75.6873 73.3429V69.2683C75.6873 67.5701 76.3619 65.9415 77.5627 64.7407C78.7635 63.5399 80.3921 62.8653 82.0902 62.8653C82.9815 62.8658 83.8581 62.6389 84.6372 62.206C85.4163 61.7732 86.072 61.1487 86.5425 60.3918C87.0129 59.6348 87.2824 58.7703 87.3256 57.8801C87.3687 56.9899 87.184 56.1034 86.789 55.3045C86.3939 54.5056 85.8016 53.8207 85.068 53.3145C84.3345 52.8084 83.4839 52.4978 82.5968 52.4121C81.7097 52.3263 80.8153 52.4684 79.9984 52.8247C79.1815 53.181 78.469 53.7399 77.9283 54.4484C77.4804 55.037 77.1614 55.7134 76.9919 56.4334C76.8224 57.1534 76.8063 57.9011 76.9446 58.6277C75.7928 58.279 74.6777 57.819 73.6151 57.254C70.2232 55.4582 67.4923 52.6277 65.8191 49.1738C64.1458 45.7198 63.6174 41.8223 64.3106 38.0476C65.0037 34.2728 66.8824 30.8173 69.6736 28.1832C72.4648 25.549 76.0232 23.8735 79.8317 23.3999L80.344 23.3358V3.07342C80.3455 2.25776 80.6706 1.47604 81.2479 0.899829C81.8252 0.323618 82.6076 -1.45735e-06 83.4232 0L83.5629 0H83.8365V26.776H82.0902C78.9997 26.7868 75.9928 27.7813 73.5053 29.6154C71.0178 31.4494 69.1787 34.0279 68.2547 36.9771C67.3306 39.9263 67.3695 43.0931 68.3657 46.0187C69.3619 48.9443 71.2637 51.4768 73.7955 53.2493L74.3019 53.6043L74.6221 53.0746C75.0028 52.4495 75.4604 51.8746 75.9842 51.3633L76.4964 50.8627L75.9143 50.4611C74.4167 49.453 73.1886 48.0936 72.3373 46.5016C71.486 44.9096 71.0374 43.1334 71.0306 41.3281C71.0234 38.9376 71.8004 36.6106 73.2425 34.704C74.267 33.3236 75.6014 32.203 77.1382 31.4326C78.675 30.6622 80.3712 30.2635 82.0902 30.2685H93.1499V45.4027L93.2488 45.5541C94.5911 47.5715 95.3606 49.9155 95.4753 52.3359C95.5901 54.7564 95.0457 57.1626 93.9003 59.298C92.755 61.4334 91.0515 63.2179 88.9716 64.4612C86.8917 65.7045 84.5134 66.36 82.0902 66.3578C81.3183 66.3578 80.5781 66.6645 80.0323 67.2103C79.4864 67.7561 79.1798 68.4964 79.1798 69.2683V69.8504H82.0902C82.5534 69.8504 82.9976 70.0343 83.325 70.3618C83.6525 70.6893 83.8365 71.1335 83.8365 71.5966V73.3429H75.6873ZM74.5697 40.4783C74.5697 40.7693 74.5231 41.0604 74.5231 41.3281C74.5231 43.3351 75.3204 45.2598 76.7395 46.6789C78.1586 48.098 80.0833 48.8953 82.0902 48.8953C84.0217 48.8941 85.8991 49.5333 87.4284 50.713C88.9578 51.8927 90.0528 53.5462 90.5421 55.4146L91.1242 57.5916L91.7063 55.4146C91.916 54.6067 92.0216 53.7754 92.0206 52.9408C92.0206 50.3163 90.9781 47.7994 89.1223 45.9436C87.2666 44.0878 84.7496 43.0453 82.1252 43.0453C80.8967 43.0453 79.6821 42.786 78.5607 42.2845C77.4393 41.783 76.4364 41.0505 75.6174 40.1348L74.7501 39.1628L74.5697 40.4783ZM82.0902 33.761C80.3613 33.7627 78.685 34.3563 77.3404 35.4432L77.0203 35.6994L77.1542 36.0894C77.5151 37.1102 78.1835 37.9942 79.0675 38.6197C79.9514 39.2451 81.0074 39.5812 82.0902 39.5819C84.436 39.5674 86.7444 40.1696 88.7842 41.3281L89.6574 41.8345V33.761H82.0902ZM59.3889 73.3429V64.6116C59.3857 63.0251 59.8148 61.4678 60.6301 60.1069C61.4455 58.746 62.6162 57.6329 64.0165 56.8873C64.7647 56.483 65.5691 56.1926 66.403 56.0258C67.4756 57.1694 68.6702 58.1922 69.9654 59.0759C69.4771 59.2223 68.9728 59.3083 68.4636 59.3321C68.355 59.338 68.2462 59.338 68.1376 59.3321C67.714 59.3322 67.2919 59.383 66.8803 59.4834C65.9614 59.7103 65.1212 60.1819 64.4488 60.8481C63.7765 61.5143 63.2972 62.3502 63.0618 63.267L62.7242 64.5767L63.8884 63.9189C65.1817 63.2022 66.6358 62.8256 68.1143 62.8246C68.967 62.824 69.8066 62.6153 70.5603 62.2167C71.3139 61.818 71.9589 61.2414 72.4393 60.537C73.4962 61.0667 74.5941 61.5105 75.7222 61.8641C74.9647 63.2177 73.8622 64.3465 72.527 65.1358C71.1917 65.9251 69.6712 66.3467 68.1202 66.3578C67.201 66.3583 66.2981 66.6005 65.5022 67.0603C64.7063 67.5201 64.0453 68.1812 63.5857 68.9772L63.0793 69.8504H65.7918C66.255 69.8504 66.6991 70.0343 67.0266 70.3618C67.3541 70.6893 67.5381 71.1335 67.5381 71.5966V73.3429H59.3889ZM44.8367 73.3429C44.1486 73.3452 43.4668 73.2104 42.8312 72.9466C42.1956 72.6828 41.6189 72.2951 41.1346 71.8062L37.4268 68.1041L41.1346 64.3962C41.7382 63.7946 42.4795 63.3494 43.2941 63.0991C44.1087 62.8487 44.9721 62.8009 45.8094 62.9598C46.6466 63.1186 47.4325 63.4794 48.0988 64.0106C48.7651 64.5419 49.2918 65.2277 49.6331 66.0086L49.7903 66.3578H50.1686C50.4592 66.3632 50.748 66.3109 51.0182 66.2037C51.2884 66.0966 51.5347 65.9368 51.7426 65.7338C51.9506 65.5307 52.1161 65.2883 52.2296 65.0207C52.3431 64.7532 52.4023 64.4657 52.4038 64.175C52.3968 62.7046 52.932 61.2831 53.907 60.1824C54.8821 59.0817 56.2286 58.379 57.6892 58.2086C56.6612 59.9058 56.0619 61.8277 55.9429 63.8083C55.9352 63.9188 55.9352 64.0296 55.9429 64.1401C55.9468 64.892 55.8014 65.6373 55.515 66.3326C55.2287 67.0279 54.8072 67.6594 54.2749 68.1906C53.7427 68.7218 53.1103 69.142 52.4144 69.4269C51.7185 69.7118 50.973 69.8558 50.221 69.8504H49.8368L49.6331 70.1996C49.3751 70.8006 49.0035 71.3461 48.5388 71.8062C48.0539 72.2943 47.4771 72.6815 46.8416 72.9453C46.2062 73.209 45.5247 73.3442 44.8367 73.3429ZM44.8367 66.3578C44.3737 66.3582 43.9299 66.5425 43.6027 66.8701L42.3687 68.1041L43.6027 69.3381C43.8469 69.582 44.1579 69.7481 44.4965 69.8154C44.835 69.8826 45.1859 69.848 45.5048 69.716C45.8237 69.5839 46.0963 69.3604 46.2882 69.0735C46.4801 68.7866 46.5827 68.4493 46.583 68.1041C46.583 67.641 46.399 67.1968 46.0715 66.8693C45.744 66.5418 45.2999 66.3578 44.8367 66.3578ZM61.106 54.9781H60.879C60.125 54.9281 59.417 54.598 58.8941 54.0525C58.6205 53.7557 58.3469 53.4705 58.085 53.1619L59.9884 52.0618C60.6619 51.6695 61.4604 51.5511 62.2188 51.7309C62.9771 51.9108 63.6374 52.3752 64.063 53.0281C64.1678 53.1969 64.2842 53.3715 64.4065 53.5519L62.6253 54.5822C62.1663 54.8458 61.6469 54.9862 61.1177 54.9897L61.106 54.9781ZM57.1129 49.6985C56.585 49.6972 56.0664 49.5586 55.6082 49.2963C55.15 49.0341 54.7679 48.6571 54.4994 48.2026C54.2782 47.8242 54.0628 47.4459 53.8591 47.0384L57.9337 45.9383C58.6844 45.736 59.4841 45.8298 60.1676 46.2003C60.8511 46.5708 61.3663 47.1896 61.6066 47.929C61.6707 48.1269 61.7347 48.3248 61.8104 48.5111L57.8696 49.5938C57.6134 49.6628 57.3492 49.6981 57.0838 49.6985H57.1129ZM54.2665 43.0744C53.5988 43.0729 52.9495 42.8547 52.4163 42.4527C51.8831 42.0507 51.4947 41.4866 51.3095 40.845C51.1931 40.4317 51.0825 40.0068 50.9777 39.5819H57.5146C58.3016 39.5808 59.059 39.8824 59.6299 40.4241C60.2009 40.9658 60.5418 41.7063 60.5822 42.4923C60.5822 42.6902 60.5822 42.8823 60.6229 43.0744H54.2665ZM52.3747 35.1406C51.7244 34.9652 51.1493 34.5818 50.7373 34.0489C50.3252 33.516 50.099 32.8629 50.093 32.1894V32.0147C50.093 31.6597 50.093 31.2988 50.093 30.9437L58.8243 33.2721C59.5827 33.4756 60.2345 33.9617 60.6459 34.6307C61.0572 35.2996 61.1969 36.1007 61.0362 36.8693C60.9954 37.0614 60.9605 37.2535 60.9256 37.4514L52.3747 35.1406ZM52.8229 26.4093C52.2238 26.0656 51.7582 25.5297 51.5015 24.8885C51.2448 24.2473 51.212 23.5382 51.4085 22.876C51.5191 22.5035 51.6355 22.1309 51.7635 21.7584L61.6881 27.4978C62.375 27.8911 62.8837 28.5343 63.1081 29.2933C63.3326 30.0523 63.2555 30.8687 62.893 31.5724C62.8057 31.747 62.7184 31.9216 62.6369 32.1021L52.8229 26.4093ZM56.071 17.7536C55.5627 17.2442 55.2489 16.5729 55.184 15.8562C55.1191 15.1395 55.3073 14.4228 55.7159 13.8304L56.298 13.0271L65.949 22.7014C66.5041 23.2578 66.8254 24.0055 66.847 24.7912C66.8686 25.5769 66.589 26.3411 66.0654 26.9273C65.9315 27.0728 65.8035 27.2242 65.6754 27.3755L56.071 17.7536ZM62.1712 10.2913C61.7932 9.63925 61.6679 8.87103 61.8193 8.13267C61.9706 7.39431 62.3879 6.7373 62.992 6.28653L63.6265 5.82668L71.3158 19.139C71.7084 19.8199 71.8252 20.6253 71.6422 21.3896C71.4593 22.154 70.9904 22.8192 70.3321 23.2485L69.8431 23.5803L62.1712 10.2913ZM70.5882 5.11654C70.3796 4.34878 70.478 3.52997 70.8626 2.83352C71.2473 2.13707 71.8879 1.61768 72.6488 1.38537L73.161 1.23402L77.4044 17.1017C77.609 17.8609 77.5149 18.6696 77.1413 19.3615C76.7678 20.0534 76.1432 20.5758 75.3963 20.8212L74.8433 21.0075L70.5882 5.11654Z" fill="#DCA366"/>
</svg>
