<svg width="128" height="614" viewBox="0 0 128 614" fill="none" xmlns="http://www.w3.org/2000/svg">
<g opacity="0.2">
<path d="M67.8866 604.893C65.0794 607.775 61.7233 610.066 58.0165 611.63C54.3097 613.194 50.3272 614 46.3039 614C42.2807 614 38.2981 613.194 34.5913 611.63C30.8845 610.066 27.5285 607.775 24.7213 604.893C19.0493 598.61 16.0374 590.371 16.32 581.911C16.225 576.75 17.3267 571.638 19.5389 566.975L34.1848 566.975C31.4132 571.402 29.9615 576.527 30.0003 581.75C29.8774 586.233 31.532 590.584 34.6033 593.853C36.1414 595.404 37.9716 596.635 39.9881 597.476C42.0046 598.316 44.1676 598.749 46.3522 598.749C48.5368 598.749 50.6998 598.316 52.7163 597.476C54.7329 596.635 56.563 595.404 58.1012 593.853C61.1746 590.383 62.7992 585.867 62.6398 581.235C62.8329 575.805 61.2009 570.467 58.0046 566.074L72.8115 566.074C75.2623 570.978 76.5092 576.396 76.4488 581.878C76.6994 590.372 73.6277 598.629 67.8866 604.893Z" fill="#D0D0D0"/>
<path d="M76.3201 526.191C76.1642 533.039 73.6501 539.622 69.2022 544.83C64.7543 550.038 58.6453 553.552 51.9069 554.777C45.1685 556.002 38.2137 554.865 32.217 551.556C26.2203 548.248 21.5492 542.971 18.9926 536.617C16.4361 530.263 16.1507 523.222 18.1846 516.682C20.2186 510.142 24.4473 504.504 30.1566 500.721C35.8658 496.938 42.7058 495.241 49.5212 495.917C56.3367 496.593 62.71 499.601 67.5648 504.432C70.4493 507.256 72.7167 510.648 74.2237 514.394C75.7307 518.139 76.4445 522.156 76.3201 526.191ZM62.6398 526.191C62.6787 524.168 62.2854 522.159 61.4861 520.3C60.6867 518.44 59.4998 516.772 58.0047 515.408C54.7596 512.587 50.6042 511.033 46.304 511.033C42.0038 511.033 37.8484 512.587 34.6033 515.408C33.1459 516.811 31.9865 518.493 31.1945 520.354C30.4026 522.215 29.9944 524.217 29.9944 526.24C29.9944 528.262 30.4026 530.264 31.1945 532.125C31.9865 533.987 33.1459 535.669 34.6033 537.071C37.8661 539.855 42.0148 541.385 46.304 541.385C50.5932 541.385 54.7419 539.855 58.0047 537.071C59.5089 535.694 60.7009 534.01 61.5004 532.133C62.2999 530.257 62.6884 528.231 62.6398 526.191Z" fill="#D0D0D0"/>
<path d="M81.5344 489.979L62.2211 489.979L62.2211 484.475C55.1395 480.097 43.6803 478.037 27.9399 478.037L17.4785 478.037L17.4785 434.936L62.1245 434.936L62.1245 427.34L81.4378 427.34L81.4378 441.374L75.0001 441.374L75.0001 476.074L81.4378 476.074L81.5344 489.979ZM62.2211 449.711L30.4828 449.711L30.4828 463.134C41.2463 463.07 51.9435 464.823 62.1245 468.316L62.2211 449.711Z" fill="#D0D0D0"/>
<path d="M75.161 415.622L17.4785 415.622L17.4785 371.781L30.3541 371.781L30.3541 400.751L38.2082 400.751L38.2082 377.672L50.7296 377.672L50.7296 400.751L61.9957 400.751L61.9957 371.073L74.8713 371.073L75.161 415.622Z" fill="#D0D0D0"/>
<path d="M75.1611 358.455L17.4786 358.455L17.4786 343.616L50.0215 343.616L17.4786 319.796L17.4786 306.921L75.1611 306.921L75.1611 321.76L42.264 321.76L75.1611 345.998L75.1611 358.455ZM-8.77982e-07 338.369C1.39129 338.263 2.69112 337.635 3.63945 336.612C4.58777 335.588 5.11464 334.244 5.11464 332.849C5.11464 331.453 4.58777 330.11 3.63945 329.086C2.69112 328.062 1.39129 327.435 -1.36059e-06 327.328L-1.8024e-06 317.221C1.99367 317.14 3.98055 317.502 5.81741 318.281C7.65428 319.06 9.29536 320.237 10.6223 321.728C13.2606 324.788 14.651 328.73 14.5172 332.768C14.6502 336.836 13.2614 340.807 10.6223 343.906C9.28098 345.374 7.63576 346.531 5.80124 347.299C3.96672 348.066 1.98701 348.424 -4.41804e-07 348.348L-8.77982e-07 338.369Z" fill="#D0D0D0"/>
<path d="M67.8864 284.453C65.1674 287.447 61.8309 289.815 58.1074 291.393C54.3838 292.971 50.362 293.722 46.3198 293.595C42.2824 293.718 38.2654 292.974 34.5396 291.414C30.8138 289.854 27.4657 287.513 24.7211 284.549C19.0501 278.253 16.039 270.004 16.3198 261.534C16.2251 256.384 17.3269 251.283 19.5387 246.631L34.1846 246.631C31.4172 251.048 29.9657 256.162 30.0001 261.373C29.8792 265.866 31.5329 270.226 34.6031 273.509C36.1096 275.091 37.9301 276.34 39.9478 277.177C41.9656 278.014 44.136 278.42 46.3198 278.369C48.5235 278.431 50.715 278.021 52.747 277.166C54.779 276.311 56.6046 275.031 58.101 273.412C61.1744 269.943 62.799 265.426 62.6396 260.794C62.8227 255.366 61.1918 250.031 58.0044 245.633L72.8113 245.633C75.2647 250.548 76.5116 255.977 76.4486 261.47C76.6976 269.954 73.6256 278.2 67.8864 284.453Z" fill="#D0D0D0"/>
<path d="M75.1612 218.176L30.483 218.176L30.483 235.365L17.6074 235.365L17.6074 185.858L30.483 185.858L30.483 203.24L75.1612 203.24L75.1612 218.176Z" fill="#D0D0D0"/>
<path d="M75.161 174.013L17.4785 174.013L17.4785 145.912C17.4785 135.386 22.5644 127.951 32.0601 127.951C34.3787 127.886 36.6671 128.488 38.653 129.686C40.639 130.885 42.2387 132.629 43.2618 134.71C44.049 131.701 45.8157 129.04 48.2833 127.146C51.2236 124.88 54.8764 123.739 58.5837 123.927C60.8944 123.859 63.1885 124.337 65.2801 125.321C67.3718 126.305 69.202 127.768 70.6224 129.592C73.8365 133.874 75.4431 139.149 75.161 144.496L75.161 174.013ZM39.5601 159.174L39.5601 148.133C39.5601 144.528 37.6609 142.21 34.603 142.21C31.5451 142.21 29.485 144.528 29.485 148.133L29.485 159.174L39.5601 159.174ZM62.8005 159.174L62.8005 147.232C62.8005 142.693 60.5794 139.989 56.6846 139.989C52.7897 139.989 50.5043 142.854 50.5043 147.232L50.5043 159.174L62.8005 159.174Z" fill="#D0D0D0"/>
<path d="M75.161 111.212L17.4785 111.212L17.4785 96.3734L50.0215 96.3734L17.4785 72.5857L17.4785 59.7102L75.161 59.7102L75.161 74.4205L42.2639 74.4205L75.161 98.6588L75.161 111.212Z" fill="#D0D0D0"/>
<path d="M75.161 44.5493L17.4785 44.5493L17.4785 0.708069L30.3541 0.708068L30.3541 29.6781L38.2082 29.6781L38.2082 6.59859L50.7296 6.59859L50.7296 29.6781L61.9957 29.6781L61.9957 -9.34986e-05L74.8713 -9.40615e-05L75.161 44.5493Z" fill="#D0D0D0"/>
<path d="M127.854 595.88L123.702 595.88L123.702 611.556L103.455 611.556L103.455 607.372L119.968 607.372L119.968 598.906L103.455 598.906L103.455 594.722L119.968 594.722L119.968 591.921L127.854 591.921L127.854 595.88Z" fill="#DCA366"/>
<path d="M123.702 584.518L103.455 584.518L103.455 569.647L107.189 569.647L107.189 580.366L111.084 580.366L111.084 571.739L114.657 571.739L114.657 580.366L119.871 580.366L119.871 569.325L123.605 569.325L123.702 584.518Z" fill="#DCA366"/>
<path d="M123.702 561.663L103.455 561.663L103.455 557.479L111.019 557.479L111.019 548.337L103.455 548.337L103.455 544.185L123.702 544.185L123.702 548.337L114.818 548.337L114.818 557.479L123.702 557.479L123.702 561.663Z" fill="#DCA366"/>
<path d="M103.455 536.717L103.455 519.721L107.189 519.721L107.189 526.159L123.702 526.159L123.702 530.312L107.189 530.312L107.189 536.749L103.455 536.717Z" fill="#DCA366"/>
<path d="M123.702 512.189L103.455 512.189L103.455 503.337C103.349 501.466 103.959 499.624 105.161 498.187C105.7 497.558 106.373 497.058 107.131 496.724C107.888 496.39 108.711 496.23 109.539 496.256C110.377 496.227 111.21 496.385 111.978 496.72C112.747 497.054 113.431 497.555 113.981 498.187C115.184 499.624 115.794 501.466 115.687 503.337L115.687 508.005L123.702 508.005L123.702 512.189ZM112.114 508.005L112.114 503.627C112.114 501.631 111.245 500.408 109.603 500.408C107.962 500.408 107.093 501.599 107.093 503.627L107.093 508.005L112.114 508.005Z" fill="#DCA366"/>
<path d="M121.095 474.689C119.072 476.677 116.35 477.791 113.515 477.791C110.679 477.791 107.957 476.677 105.934 474.689C103.95 472.552 102.886 469.719 102.973 466.803C102.956 464.933 103.398 463.087 104.26 461.428L108.445 461.428C107.417 463.019 106.88 464.877 106.9 466.771C106.871 467.66 107.022 468.545 107.343 469.375C107.663 470.204 108.148 470.961 108.767 471.599C109.396 472.242 110.147 472.752 110.976 473.1C111.805 473.449 112.696 473.628 113.595 473.628C114.494 473.628 115.385 473.449 116.214 473.1C117.043 472.752 117.794 472.242 118.423 471.599C119.044 470.943 119.526 470.169 119.842 469.323C120.157 468.477 120.298 467.576 120.258 466.674C120.325 464.675 119.712 462.712 118.52 461.106L122.704 461.106C123.727 462.85 124.24 464.846 124.185 466.867C124.227 469.78 123.117 472.592 121.095 474.689Z" fill="#DCA366"/>
<path d="M123.702 453.155L103.455 453.155L103.455 444.303C103.358 442.433 103.967 440.595 105.161 439.153C105.7 438.524 106.373 438.024 107.131 437.69C107.888 437.355 108.711 437.195 109.539 437.221C110.377 437.193 111.21 437.351 111.978 437.685C112.747 438.019 113.431 438.521 113.981 439.153C115.175 440.595 115.784 442.433 115.687 444.303L115.687 449.003L123.702 449.003L123.702 453.155ZM112.114 449.003L112.114 444.593C112.114 442.597 111.245 441.374 109.603 441.374C107.962 441.374 107.093 442.565 107.093 444.593L107.093 449.003L112.114 449.003Z" fill="#DCA366"/>
<path d="M106.094 427.468C105.062 426.507 104.242 425.34 103.688 424.043C103.133 422.745 102.857 421.346 102.876 419.936C102.851 418.529 103.125 417.133 103.68 415.84C104.235 414.548 105.058 413.387 106.094 412.436C108.101 410.485 110.789 409.39 113.588 409.384C116.387 409.378 119.079 410.461 121.094 412.404C122.131 413.355 122.954 414.515 123.509 415.808C124.063 417.101 124.338 418.497 124.313 419.904C124.332 421.314 124.055 422.713 123.501 424.01C122.947 425.308 122.127 426.475 121.094 427.436C119.066 429.337 116.39 430.395 113.611 430.395C110.831 430.395 108.155 429.337 106.127 427.436L106.094 427.468ZM120.193 419.936C120.217 419.1 120.063 418.269 119.741 417.498C119.419 416.726 118.937 416.032 118.326 415.462C117.008 414.254 115.286 413.584 113.498 413.584C111.71 413.584 109.987 414.254 108.67 415.462C107.509 416.662 106.861 418.266 106.861 419.936C106.861 421.605 107.509 423.21 108.67 424.41C109.997 425.598 111.716 426.254 113.498 426.254C115.279 426.254 116.998 425.598 118.326 424.41C118.935 423.838 119.417 423.144 119.738 422.373C120.06 421.602 120.215 420.771 120.193 419.936Z" fill="#DCA366"/>
<path d="M123.702 389.55L103.455 389.55L103.455 385.397L116.653 385.397L103.455 375.58L103.455 371.975L123.702 371.975L123.702 376.127L110.408 376.127L123.702 386.041L123.702 389.55Z" fill="#DCA366"/>
<path d="M119.775 353.434C119.925 352.955 120.001 352.455 120 351.953C120 350.859 119.26 350.118 117.779 349.732C115.004 349.259 112.192 349.044 109.378 349.088L103.455 349.088L103.455 334.796L123.702 334.796L123.702 338.917L107.189 338.917L107.189 344.807L111.277 344.807C114.571 344.69 117.855 345.237 120.934 346.417C121.823 346.892 122.554 347.618 123.035 348.505C123.515 349.392 123.725 350.401 123.638 351.406C123.656 351.996 123.569 352.585 123.38 353.144L119.775 353.434Z" fill="#DCA366"/>
<path d="M123.702 325.848L103.455 325.848L103.455 321.696L116.653 321.696L103.455 312.039L103.455 308.434L123.702 308.434L123.702 312.586L110.408 312.586L123.702 322.275L123.702 325.848Z" fill="#DCA366"/>
<path d="M127.854 283.648L123.702 283.648L123.702 299.356L103.455 299.356L103.455 295.172L119.968 295.172L119.968 286.867L103.455 286.867L103.455 282.682L119.968 282.682L119.968 279.882L127.854 279.882L127.854 283.648Z" fill="#DCA366"/>
<path d="M123.702 272.446L103.455 272.446L103.455 257.543L107.189 257.543L107.189 268.262L111.084 268.262L111.084 259.635L114.657 259.635L114.657 268.262L119.871 268.262L119.871 257.221L123.605 257.221L123.702 272.446Z" fill="#DCA366"/>
<path d="M123.702 249.56L103.455 249.56L103.455 245.408L111.019 245.408L111.019 236.234L103.455 236.234L103.455 232.146L123.702 232.146L123.702 236.266L114.818 236.266L114.818 245.44L123.702 245.44L123.702 249.56Z" fill="#DCA366"/>
<path d="M122.253 224.485L118.197 224.485C119.484 222.474 120.186 220.145 120.225 217.757C120.225 214.539 119.131 212.865 117.296 212.865C115.461 212.865 114.753 214.474 114.753 217.178L114.753 219.721L111.437 219.721L111.437 216.663C111.437 214.506 110.665 213.444 109.184 213.444C107.704 213.444 107.06 214.893 107.06 217.242C107.046 219.474 107.553 221.678 108.54 223.68L104.549 223.68C103.485 221.613 102.965 219.309 103.036 216.985C102.925 214.99 103.492 213.016 104.646 211.384C105.118 210.726 105.742 210.193 106.465 209.828C107.188 209.464 107.988 209.28 108.798 209.292C109.67 209.292 110.521 209.553 111.244 210.04C111.966 210.528 112.527 211.22 112.854 212.028C113.201 210.983 113.879 210.079 114.785 209.452C115.69 208.825 116.775 208.509 117.875 208.551C118.765 208.554 119.642 208.765 120.436 209.167C121.23 209.57 121.918 210.153 122.446 210.869C123.783 212.738 124.431 215.013 124.281 217.307C124.295 219.843 123.592 222.331 122.253 224.485Z" fill="#DCA366"/>
<path d="M123.702 200.729L103.455 200.729L103.455 196.545L116.653 196.545L103.455 186.727L103.455 183.154L123.702 183.154L123.702 187.275L110.408 187.275L123.702 197.221L123.702 200.729Z" fill="#DCA366"/>
<path d="M123.702 174.206L103.455 174.206L103.455 165.354C103.358 163.484 103.967 161.646 105.161 160.204C105.702 159.579 106.376 159.084 107.134 158.755C107.892 158.426 108.714 158.272 109.539 158.304C110.374 158.269 111.207 158.422 111.975 158.751C112.744 159.079 113.429 159.576 113.981 160.204C115.175 161.646 115.784 163.484 115.687 165.354L115.687 170.053L123.702 170.053L123.702 174.206ZM112.114 170.053L112.114 165.644C112.114 163.648 111.245 162.425 109.603 162.425C107.962 162.425 107.093 163.616 107.093 165.644L107.093 170.053L112.114 170.053Z" fill="#DCA366"/>
<path d="M106.094 148.455C105.06 147.495 104.239 146.328 103.685 145.031C103.13 143.733 102.855 142.333 102.876 140.923C102.851 139.516 103.125 138.12 103.68 136.827C104.235 135.534 105.058 134.374 106.094 133.423C108.104 131.485 110.787 130.403 113.578 130.403C116.37 130.403 119.053 131.485 121.062 133.423C122.099 134.374 122.922 135.534 123.476 136.827C124.031 138.12 124.306 139.516 124.281 140.923C124.306 142.331 124.035 143.729 123.486 145.027C122.938 146.324 122.123 147.492 121.094 148.455C119.066 150.356 116.39 151.414 113.611 151.414C110.831 151.414 108.155 150.356 106.127 148.455L106.094 148.455ZM120.193 140.923C120.217 140.087 120.063 139.256 119.741 138.484C119.419 137.713 118.937 137.019 118.326 136.448C117.008 135.24 115.286 134.57 113.498 134.57C111.71 134.57 109.987 135.24 108.67 136.448C107.509 137.649 106.861 139.253 106.861 140.923C106.861 142.592 107.509 144.196 108.67 145.397C109.997 146.584 111.716 147.241 113.498 147.241C115.279 147.241 116.998 146.584 118.326 145.397C118.915 144.843 119.385 144.175 119.706 143.433C120.027 142.691 120.193 141.892 120.193 141.084L120.193 140.923Z" fill="#DCA366"/>
<path d="M123.702 122.446L103.455 122.446L103.455 112.79C103.455 109.088 105.258 106.674 108.509 106.674C109.358 106.639 110.199 106.863 110.917 107.317C111.636 107.772 112.199 108.434 112.532 109.217C112.777 108.07 113.414 107.045 114.335 106.32C115.347 105.486 116.629 105.051 117.94 105.097C118.739 105.074 119.533 105.236 120.259 105.572C120.985 105.907 121.623 106.405 122.125 107.028C123.249 108.489 123.809 110.306 123.702 112.146L123.702 122.446ZM111.438 118.294L111.438 113.594C111.438 111.856 110.633 110.826 109.249 110.826C107.865 110.826 106.996 111.856 106.996 113.594L106.996 118.294L111.438 118.294ZM120.193 118.294L120.193 113.047C120.193 110.987 119.26 109.828 117.554 109.828C115.848 109.828 114.882 111.084 114.882 113.047L114.882 118.294L120.193 118.294Z" fill="#DCA366"/>
<path d="M123.702 99.1416L103.326 90.4506L103.326 86.4592L123.702 77.7682L123.702 82.2103L119.034 84.0772L119.034 92.7682L123.702 94.764L123.702 99.1416ZM115.59 91.4807L115.59 85.5579L108.541 88.4871L115.59 91.4807Z" fill="#DCA366"/>
<path d="M123.702 70.7511L103.455 70.7511L103.455 66.5665L111.019 66.5665L111.019 57.4249L103.455 57.4249L103.455 53.3047L123.702 53.3047L123.702 57.4249L114.818 57.4249L114.818 66.5665L123.702 66.5665L123.702 70.7511Z" fill="#DCA366"/>
<path d="M123.702 44.4526L103.455 44.4526L103.455 40.3002L116.653 40.3002L103.455 30.6436L103.455 27.0384L123.702 27.0384L123.702 31.1908L110.408 31.1908L123.702 41.105L123.702 44.4526Z" fill="#DCA366"/>
<path d="M123.702 19.6992L115.043 13.2614C114.718 14.4909 113.989 15.5754 112.973 16.3402C111.957 17.1051 110.713 17.5059 109.442 17.4782C108.63 17.5024 107.823 17.3478 107.077 17.0251C106.332 16.7025 105.667 16.2198 105.129 15.6113C103.945 14.1774 103.347 12.3493 103.455 10.4932L103.455 1.12627L123.702 1.12627L123.702 5.27856L115.526 5.27856L115.526 8.81936L123.702 14.8065L123.702 19.6992ZM112.017 5.37512L107.092 5.37512L107.092 10.3645C107.092 12.2314 108.026 13.3902 109.538 13.3902C111.051 13.3902 112.017 12.2314 112.017 10.3645L112.017 5.37512Z" fill="#DCA366"/>
</g>
</svg>
