<svg width="203" height="845" viewBox="0 0 203 845" fill="none" xmlns="http://www.w3.org/2000/svg">
<g opacity="0.2">
<path d="M107.786 831.516C103.329 835.478 98.0007 838.627 92.1152 840.777C86.2298 842.927 79.9065 844.035 73.5186 844.035C67.1307 844.035 60.8075 842.927 54.922 840.777C49.0365 838.627 43.708 835.478 39.2509 831.516C30.2453 822.879 25.4631 811.553 25.9117 799.923C25.7609 792.829 27.5102 785.802 31.0225 779.392L54.2765 779.392C49.8759 785.477 47.571 792.522 47.6325 799.702C47.4375 805.865 50.0645 811.846 54.941 816.339C57.3831 818.472 60.2889 820.164 63.4907 821.319C66.6924 822.475 70.1267 823.069 73.5953 823.069C77.0639 823.069 80.4981 822.475 83.6999 821.319C86.9016 820.164 89.8074 818.472 92.2496 816.339C97.1295 811.57 99.7089 805.361 99.4558 798.994C99.7623 791.53 97.1713 784.192 92.0963 778.153L115.606 778.153C119.497 784.895 121.477 792.342 121.381 799.879C121.779 811.555 116.902 822.905 107.786 831.516Z" fill="#D0D0D0"/>
<path d="M121.177 723.328C120.93 732.741 116.938 741.791 109.876 748.95C102.813 756.109 93.1139 760.939 82.4151 762.624C71.7163 764.308 60.6738 762.744 51.1525 758.196C41.6313 753.648 34.2148 746.394 30.1556 737.66C26.0964 728.925 25.6433 719.246 28.8727 710.256C32.1021 701.266 38.8162 693.516 47.8811 688.316C56.9459 683.115 67.806 680.783 78.6272 681.712C89.4484 682.641 99.5676 686.776 107.276 693.417C111.856 697.299 115.456 701.962 117.848 707.111C120.241 712.259 121.375 717.781 121.177 723.328ZM99.4563 723.328C99.518 720.547 98.8934 717.785 97.6243 715.229C96.3552 712.673 94.4707 710.381 92.0968 708.505C86.9444 704.627 80.3467 702.491 73.5191 702.491C66.6915 702.491 60.0938 704.627 54.9414 708.505C52.6274 710.433 50.7865 712.746 49.5291 715.304C48.2717 717.863 47.6236 720.614 47.6236 723.395C47.6236 726.175 48.2717 728.927 49.5291 731.486C50.7865 734.044 52.6274 736.356 54.9414 738.284C60.1219 742.112 66.7089 744.214 73.5191 744.214C80.3293 744.214 86.9163 742.112 92.0968 738.284C94.4852 736.391 96.3777 734.076 97.6471 731.496C98.9165 728.917 99.5333 726.132 99.4563 723.328Z" fill="#D0D0D0"/>
<path d="M129.456 673.549L98.7917 673.549L98.7917 665.983C87.548 659.965 69.3537 657.133 44.362 657.133L27.752 657.133L27.7519 597.885L98.6384 597.885L98.6384 587.442L129.303 587.442L129.303 606.734L119.081 606.734L119.081 654.434L129.303 654.434L129.456 673.549ZM98.7917 618.195L48.3995 618.195L48.3995 636.646C65.4892 636.559 82.4735 638.968 98.6384 643.77L98.7917 618.195Z" fill="#D0D0D0"/>
<path d="M119.337 571.335L27.752 571.335L27.7519 511.069L48.195 511.069L48.195 550.892L60.6653 550.892L60.6653 519.166L80.5462 519.166L80.5462 550.892L98.4339 550.892L98.4339 510.095L118.877 510.095L119.337 571.335Z" fill="#D0D0D0"/>
<path d="M119.337 492.75L27.7515 492.75L27.7515 472.351L79.4214 472.351L27.7515 439.608L27.7515 421.908L119.337 421.908L119.337 442.307L67.1044 442.307L119.337 475.626L119.337 492.75ZM-1.63773e-06 465.139C2.20901 464.993 4.27282 464.13 5.77851 462.723C7.28421 461.316 8.12075 459.468 8.12075 457.55C8.12075 455.632 7.28421 453.785 5.77851 452.378C4.27282 450.971 2.20901 450.108 -2.53795e-06 449.962L-3.36206e-06 436.068C3.16544 435.956 6.32009 436.453 9.23657 437.525C12.153 438.596 14.7587 440.214 16.8655 442.263C21.0545 446.47 23.262 451.888 23.0496 457.44C23.2607 463.031 21.0557 468.491 16.8655 472.75C14.7358 474.768 12.1236 476.359 9.21089 477.414C6.29814 478.468 3.15487 478.961 -8.24111e-07 478.856L-1.63773e-06 465.139Z" fill="#D0D0D0"/>
<path d="M107.786 391.023C103.469 395.139 98.1715 398.394 92.2595 400.563C86.3474 402.733 79.9618 403.766 73.5438 403.59C67.1334 403.759 60.7555 402.737 54.8398 400.593C48.9242 398.448 43.6084 395.23 39.2505 391.156C30.2464 382.5 25.4655 371.161 25.9114 359.518C25.7611 352.439 27.5105 345.426 31.0222 339.031L54.2762 339.031C49.8823 345.103 47.5776 352.132 47.6322 359.297C47.4403 365.473 50.0659 371.466 54.9406 375.979C57.3326 378.153 60.2231 379.871 63.4268 381.021C66.6304 382.172 70.0764 382.73 73.5438 382.66C77.0428 382.746 80.5222 382.182 83.7486 381.006C86.9749 379.831 89.8734 378.071 92.2493 375.846C97.1291 371.077 99.7086 364.868 99.4554 358.501C99.7462 351.038 97.1567 343.705 92.096 337.66L115.606 337.66C119.501 344.416 121.481 351.879 121.381 359.43C121.776 371.092 116.898 382.428 107.786 391.023Z" fill="#D0D0D0"/>
<path d="M119.337 299.916L48.3991 299.916L48.3992 323.544L27.9561 323.544L27.9561 255.49L48.3991 255.49L48.3991 279.384L119.337 279.384L119.337 299.916Z" fill="#D0D0D0"/>
<path d="M119.337 239.207L27.752 239.207L27.752 200.578C27.7519 186.109 35.827 175.888 50.9038 175.888C54.5851 175.798 58.2186 176.626 61.3717 178.274C64.5248 179.921 67.0648 182.318 68.6892 185.18C69.9391 181.043 72.7442 177.385 76.6621 174.781C81.3306 171.667 87.1303 170.097 93.0165 170.356C96.6853 170.263 100.328 170.919 103.649 172.272C106.97 173.625 109.876 175.637 112.131 178.144C117.234 184.03 119.785 191.282 119.337 198.631L119.337 239.207ZM62.8119 218.808L62.8118 203.631C62.8118 198.675 59.7965 195.489 54.9413 195.489C50.086 195.489 46.8151 198.675 46.8151 203.631L46.8151 218.808L62.8119 218.808ZM99.7116 218.808L99.7116 202.392C99.7116 196.153 96.1852 192.436 90.0012 192.436C83.8171 192.436 80.1885 196.374 80.1885 202.392L80.1885 218.808L99.7116 218.808Z" fill="#D0D0D0"/>
<path d="M119.337 152.878L27.752 152.878L27.752 132.48L79.4219 132.48L27.7519 99.7802L27.7519 82.0808L119.337 82.0808L119.337 102.302L67.1049 102.302L119.337 135.621L119.337 152.878Z" fill="#D0D0D0"/>
<path d="M119.337 61.2399L27.752 61.2399L27.7519 0.97348L48.195 0.97348L48.195 40.7971L60.6653 40.7971L60.6653 9.07089L80.5462 9.07089L80.5462 40.7971L98.434 40.7971L98.4339 5.35251e-06L118.877 4.69398e-06L119.337 61.2399Z" fill="#D0D0D0"/>
<path d="M203 819.127L196.408 819.127L196.408 840.676L164.261 840.676L164.261 834.923L190.479 834.923L190.479 823.286L164.261 823.286L164.261 817.534L190.479 817.534L190.479 813.684L203 813.684L203 819.127Z" fill="#DCA366"/>
<path d="M196.408 803.507L164.261 803.507L164.261 783.064L170.189 783.064L170.189 797.799L176.373 797.799L176.373 785.94L182.046 785.94L182.046 797.799L190.326 797.799L190.326 782.622L196.254 782.622L196.408 803.507Z" fill="#DCA366"/>
<path d="M196.408 772.09L164.261 772.09L164.261 766.338L176.271 766.338L176.271 753.772L164.261 753.772L164.261 748.063L196.408 748.063L196.408 753.772L182.302 753.772L182.302 766.338L196.408 766.338L196.408 772.09Z" fill="#DCA366"/>
<path d="M164.261 737.798L164.261 714.435L170.189 714.435L170.189 723.285L196.408 723.285L196.408 728.993L170.189 728.993L170.189 737.842L164.261 737.798Z" fill="#DCA366"/>
<path d="M196.406 704.081L164.259 704.081L164.259 691.912C164.09 689.34 165.058 686.808 166.968 684.832C167.823 683.968 168.892 683.281 170.095 682.821C171.298 682.362 172.605 682.142 173.919 682.178C175.248 682.138 176.571 682.356 177.792 682.815C179.012 683.274 180.098 683.964 180.972 684.832C182.881 686.808 183.85 689.34 183.68 691.912L183.68 698.328L196.406 698.328L196.406 704.081ZM178.007 698.328L178.007 692.31C178.007 689.567 176.627 687.886 174.021 687.886C171.414 687.886 170.034 689.523 170.034 692.31L170.034 698.328L178.007 698.328Z" fill="#DCA366"/>
<path d="M192.267 652.531C189.055 655.264 184.733 656.794 180.231 656.794C175.729 656.794 171.406 655.264 168.195 652.531C165.044 649.593 163.355 645.699 163.493 641.691C163.466 639.12 164.168 636.582 165.537 634.301L172.181 634.301C170.549 636.488 169.696 639.043 169.728 641.646C169.683 642.868 169.922 644.086 170.431 645.226C170.941 646.366 171.71 647.406 172.693 648.284C173.692 649.167 174.885 649.868 176.201 650.347C177.517 650.826 178.931 651.073 180.359 651.073C181.787 651.073 183.2 650.826 184.516 650.347C185.833 649.868 187.026 649.167 188.025 648.284C189.01 647.382 189.776 646.318 190.277 645.155C190.777 643.992 191.002 642.754 190.938 641.514C191.044 638.765 190.071 636.067 188.178 633.859L194.822 633.859C196.446 636.257 197.26 639.001 197.173 641.779C197.24 645.783 195.477 649.648 192.267 652.531Z" fill="#DCA366"/>
<path d="M196.407 622.929L164.26 622.929L164.26 610.761C164.106 608.19 165.073 605.663 166.969 603.681C167.824 602.816 168.893 602.129 170.096 601.67C171.299 601.21 172.605 600.99 173.92 601.026C175.249 600.986 176.572 601.204 177.792 601.663C179.012 602.123 180.099 602.812 180.972 603.681C182.868 605.663 183.835 608.19 183.681 610.761L183.681 617.221L196.407 617.221L196.407 622.929ZM178.008 617.221L178.008 611.159C178.008 608.415 176.628 606.734 174.022 606.734C171.415 606.734 170.035 608.371 170.035 611.159L170.035 617.221L178.008 617.221Z" fill="#DCA366"/>
<path d="M168.451 587.619C166.812 586.297 165.51 584.694 164.63 582.91C163.75 581.127 163.31 579.204 163.34 577.265C163.302 575.331 163.737 573.412 164.618 571.635C165.499 569.858 166.805 568.263 168.451 566.955C171.638 564.273 175.904 562.768 180.349 562.76C184.793 562.752 189.067 564.24 192.267 566.911C193.913 568.218 195.219 569.814 196.1 571.591C196.981 573.368 197.417 575.287 197.378 577.221C197.408 579.16 196.969 581.083 196.088 582.866C195.208 584.649 193.907 586.253 192.267 587.575C189.047 590.188 184.798 591.642 180.385 591.642C175.971 591.642 171.723 590.188 168.502 587.575L168.451 587.619ZM190.836 577.265C190.875 576.116 190.63 574.974 190.119 573.913C189.608 572.853 188.842 571.899 187.872 571.114C185.78 569.454 183.044 568.533 180.206 568.533C177.367 568.533 174.632 569.454 172.54 571.114C170.697 572.764 169.668 574.97 169.668 577.265C169.668 579.56 170.697 581.765 172.54 583.415C174.648 585.048 177.377 585.951 180.206 585.951C183.034 585.951 185.764 585.048 187.872 583.415C188.839 582.629 189.603 581.675 190.114 580.615C190.625 579.555 190.871 578.413 190.836 577.265Z" fill="#DCA366"/>
<path d="M196.408 535.494L164.261 535.494L164.261 529.786L185.215 529.786L164.261 516.291L164.261 511.335L196.407 511.335L196.408 517.043L175.3 517.043L196.408 530.671L196.408 535.494Z" fill="#DCA366"/>
<path d="M190.172 485.848C190.411 485.189 190.531 484.503 190.53 483.812C190.53 482.308 189.355 481.29 187.004 480.759C182.598 480.109 178.133 479.813 173.665 479.874L164.261 479.874L164.261 460.228L196.408 460.228L196.408 465.891L170.189 465.891L170.189 473.989L176.68 473.989C181.91 473.828 187.125 474.581 192.012 476.201C193.425 476.855 194.585 477.853 195.348 479.073C196.111 480.292 196.444 481.678 196.305 483.06C196.334 483.871 196.196 484.68 195.896 485.449L190.172 485.848Z" fill="#DCA366"/>
<path d="M196.408 447.927L164.261 447.927L164.261 442.219L185.215 442.219L164.261 428.945L164.261 423.989L196.408 423.989L196.408 429.697L175.3 429.697L196.408 443.016L196.408 447.927Z" fill="#DCA366"/>
<path d="M203 389.917L196.408 389.917L196.408 411.51L164.261 411.51L164.261 405.758L190.479 405.758L190.479 394.342L164.261 394.342L164.261 388.59L190.479 388.59L190.479 384.74L203 384.74L203 389.917Z" fill="#DCA366"/>
<path d="M196.408 374.519L164.261 374.519L164.261 354.032L170.189 354.032L170.189 368.766L176.373 368.766L176.373 356.908L182.046 356.908L182.046 368.766L190.326 368.766L190.326 353.589L196.254 353.589L196.408 374.519Z" fill="#DCA366"/>
<path d="M196.408 343.058L164.261 343.058L164.261 337.35L176.271 337.35L176.271 324.739L164.261 324.739L164.261 319.119L196.408 319.119L196.408 324.783L182.302 324.783L182.302 337.394L196.408 337.394L196.408 343.058Z" fill="#DCA366"/>
<path d="M194.107 308.588L187.668 308.588C189.711 305.824 190.825 302.622 190.888 299.34C190.888 294.916 189.15 292.615 186.237 292.615C183.324 292.615 182.199 294.827 182.199 298.544L182.199 302.04L176.935 302.04L176.935 297.836C176.935 294.871 175.709 293.411 173.358 293.411C171.007 293.411 169.984 295.402 169.984 298.632C169.963 301.7 170.768 304.731 172.335 307.482L165.998 307.482C164.309 304.64 163.482 301.473 163.596 298.278C163.42 295.536 164.32 292.822 166.151 290.579C166.901 289.675 167.892 288.941 169.04 288.441C170.188 287.94 171.459 287.687 172.744 287.703C174.128 287.704 175.48 288.062 176.628 288.732C177.775 289.402 178.665 290.353 179.184 291.464C179.736 290.028 180.812 288.785 182.249 287.923C183.687 287.062 185.409 286.627 187.157 286.685C188.57 286.689 189.962 286.979 191.222 287.532C192.483 288.085 193.576 288.886 194.414 289.871C196.537 292.441 197.566 295.568 197.327 298.721C197.349 302.207 196.233 305.628 194.107 308.588Z" fill="#DCA366"/>
<path d="M196.408 275.933L164.261 275.933L164.261 270.181L185.215 270.181L164.261 256.685L164.261 251.773L196.408 251.773L196.408 257.437L175.3 257.437L196.408 271.11L196.408 275.933Z" fill="#DCA366"/>
<path d="M196.407 239.472L164.26 239.472L164.26 227.304C164.106 224.733 165.073 222.207 166.969 220.224C167.827 219.365 168.897 218.685 170.1 218.233C171.304 217.781 172.609 217.569 173.92 217.613C175.246 217.565 176.567 217.775 177.788 218.227C179.008 218.678 180.096 219.361 180.972 220.224C182.868 222.207 183.835 224.733 183.681 227.304L183.681 233.764L196.407 233.764L196.407 239.472ZM178.008 233.764L178.008 227.702C178.008 224.959 176.628 223.277 174.022 223.277C171.415 223.277 170.035 224.914 170.035 227.702L170.035 233.764L178.008 233.764Z" fill="#DCA366"/>
<path d="M168.451 204.074C166.809 202.754 165.506 201.15 164.625 199.367C163.745 197.583 163.307 195.659 163.34 193.72C163.302 191.786 163.737 189.867 164.618 188.09C165.499 186.313 166.805 184.718 168.451 183.41C171.642 180.747 175.901 179.258 180.334 179.258C184.766 179.258 189.025 180.747 192.216 183.41C193.862 184.718 195.168 186.313 196.049 188.09C196.93 189.867 197.366 191.786 197.327 193.72C197.367 195.656 196.937 197.578 196.065 199.361C195.194 201.145 193.9 202.75 192.267 204.074C189.047 206.687 184.798 208.141 180.385 208.141C175.971 208.141 171.723 206.687 168.502 204.074L168.451 204.074ZM190.836 193.72C190.874 192.571 190.63 191.429 190.119 190.368C189.608 189.308 188.842 188.354 187.872 187.569C185.78 185.909 183.044 184.988 180.206 184.988C177.367 184.988 174.632 185.909 172.54 187.569C170.697 189.219 169.668 191.425 169.668 193.72C169.668 196.015 170.697 198.22 172.54 199.87C174.648 201.503 177.377 202.405 180.206 202.405C183.034 202.405 185.764 201.503 187.872 199.87C188.807 199.109 189.553 198.191 190.063 197.171C190.572 196.151 190.836 195.052 190.836 193.941L190.836 193.72Z" fill="#DCA366"/>
<path d="M196.408 168.321L164.261 168.321L164.261 155.047C164.261 149.958 167.123 146.639 172.285 146.639C173.634 146.591 174.968 146.9 176.109 147.524C177.25 148.149 178.145 149.059 178.673 150.135C179.061 148.559 180.074 147.15 181.535 146.153C183.142 145.006 185.178 144.408 187.259 144.471C188.528 144.44 189.788 144.664 190.941 145.124C192.093 145.585 193.107 146.27 193.903 147.126C195.688 149.134 196.578 151.632 196.408 154.162L196.408 168.321ZM176.935 162.613L176.935 156.153C176.935 153.763 175.658 152.347 173.46 152.347C171.263 152.347 169.883 153.763 169.883 156.153L169.883 162.613L176.935 162.613ZM190.837 162.613L190.837 155.401C190.837 152.569 189.355 150.976 186.646 150.976C183.937 150.976 182.404 152.701 182.404 155.401L182.404 162.613L190.837 162.613Z" fill="#DCA366"/>
<path d="M196.407 136.285L164.056 124.338L164.056 118.852L196.407 106.904L196.407 113.011L188.996 115.577L188.996 127.524L196.407 130.268L196.407 136.285ZM183.528 125.754L183.528 117.613L172.335 121.639L183.528 125.754Z" fill="#DCA366"/>
<path d="M196.408 97.2583L164.261 97.2583L164.261 91.506L176.271 91.506L176.271 78.9394L164.261 78.9394L164.261 73.2756L196.408 73.2756L196.408 78.9394L182.302 78.9394L182.302 91.506L196.408 91.506L196.408 97.2583Z" fill="#DCA366"/>
<path d="M196.408 61.1072L164.261 61.1072L164.261 55.3991L185.215 55.3991L164.261 42.1245L164.261 37.1687L196.408 37.1687L196.408 42.8768L175.3 42.8768L196.408 56.5053L196.408 61.1072Z" fill="#DCA366"/>
<path d="M196.407 27.08L182.659 18.2302C182.143 19.9204 180.985 21.4111 179.372 22.4625C177.759 23.514 175.784 24.0649 173.766 24.0268C172.477 24.0601 171.195 23.8475 170.012 23.404C168.828 22.9605 167.772 22.297 166.917 21.4604C165.038 19.4893 164.089 16.9764 164.26 14.4249L164.26 1.54859L196.407 1.54859L196.407 7.25655L183.425 7.25655L183.425 12.1239L196.407 20.3542L196.407 27.08ZM177.854 7.38929L170.035 7.38929L170.035 14.2479C170.035 16.8143 171.517 18.4073 173.919 18.4073C176.321 18.4073 177.854 16.8143 177.854 14.2479L177.854 7.38929Z" fill="#DCA366"/>
</g>
</svg>
