<svg width="97" height="97" viewBox="0 0 97 97" fill="none" xmlns="http://www.w3.org/2000/svg">
<mask id="mask0" mask-type="alpha" maskUnits="userSpaceOnUse" x="0" y="0" width="97" height="97">
<path d="M48.3214 25.1501L59.7966 15.5875H74.8202V0H37.4102V15.5875H48.3214V25.1501ZM40.5277 12.47V3.1175H71.7027V12.47H58.6687L51.4389 18.4949V12.47H40.5277Z" fill="black"/>
<path d="M43.6455 6.23462H46.763V9.35212H43.6455V6.23462Z" fill="black"/>
<path d="M49.8799 6.23462H62.3499V9.35212H49.8799V6.23462Z" fill="black"/>
<path d="M65.4678 6.23462H68.5853V9.35212H65.4678V6.23462Z" fill="black"/>
<path d="M79.3479 93.5249L78.0875 80.9065C83.2919 80.0837 87.29 75.5772 87.29 70.1436V49.8799H81.055V47.7259C81.055 45.607 79.8905 43.7042 78.0182 42.7285C79.8799 41.0183 81.055 38.5728 81.055 35.8511V32.7336C81.055 27.5756 76.8606 23.3811 71.7025 23.3811C66.5445 23.3811 62.35 27.5756 62.35 32.7336V35.8511C62.35 39.8865 64.9233 43.3222 68.512 44.6313L60.1459 52.9974H51.4045C51.2302 50.3989 49.4454 48.1339 46.917 47.4108L40.5275 45.5872V42.8031C42.4356 41.0898 43.645 38.6132 43.645 35.8511V32.7336C43.645 27.5756 39.4506 23.3811 34.2925 23.3811C29.1345 23.3811 24.94 27.5756 24.94 32.7336V35.8511C24.94 38.6117 26.1494 41.0883 28.0575 42.8031V45.5887L21.668 47.4124C19.0056 48.1712 17.1463 50.6372 17.1463 53.4076V59.2324H10.9113V68.5849H14.0288V93.5249H0V96.6424H96.6426V93.5249H79.3479ZM65.4675 68.5849V61.4365L76.5127 50.3913C77.3111 49.5929 77.7861 48.5205 77.8926 47.4017C77.9063 47.5105 77.9375 47.6133 77.9375 47.7259V67.0261C77.9375 69.604 75.8392 71.7024 73.2613 71.7024H60.7913V68.5849H65.4675ZM60.7913 81.0549H68.7335L69.9801 93.5249H60.7913V81.0549ZM71.8662 81.0549H74.9685L76.2152 93.5249H73.1129L71.8662 81.0549ZM81.055 67.0261V52.9974H84.1725V70.1436C84.1725 74.4408 80.676 77.9374 76.3788 77.9374H60.7913V74.8199H73.2613C77.5585 74.8199 81.055 71.3233 81.055 67.0261ZM65.4675 35.8511V32.7336C65.4675 29.2949 68.2638 26.4986 71.7025 26.4986C75.1412 26.4986 77.9375 29.2949 77.9375 32.7336V35.8511C77.9375 39.2898 75.1412 42.0861 71.7025 42.0861C68.2638 42.0861 65.4675 39.2898 65.4675 35.8511ZM61.4367 56.1149L71.8365 45.7151C72.1622 45.3893 72.6128 45.2036 73.0725 45.2036C74.0361 45.2036 74.82 45.9876 74.82 46.9511C74.82 47.4108 74.6343 47.8614 74.3086 48.1872L63.2634 59.2324H46.7625C45.9025 59.2324 45.2038 58.5337 45.2038 57.6736C45.2038 56.8136 45.9025 56.1149 46.7625 56.1149H61.4367ZM28.0575 32.7336C28.0575 29.2949 30.8538 26.4986 34.2925 26.4986C37.7312 26.4986 40.5275 29.2949 40.5275 32.7336V35.8511C40.5275 39.2898 37.7312 42.0861 34.2925 42.0861C30.8538 42.0861 28.0575 39.2898 28.0575 35.8511V32.7336ZM34.2925 45.2036C35.387 45.2036 36.4328 45.0042 37.41 44.6579V46.3323C37.0234 46.929 35.9495 48.3211 34.2925 48.3211C32.6356 48.3211 31.5617 46.929 31.175 46.3323V44.6579C32.1523 45.0042 33.198 45.2036 34.2925 45.2036ZM20.2638 53.4076C20.2638 52.0216 21.1946 50.7902 22.5243 50.4096L28.9457 48.5753C29.8499 49.7535 31.6096 51.4386 34.2925 51.4386C36.9754 51.4386 38.7351 49.7535 39.6393 48.5738L46.0608 50.4081C47.255 50.7498 48.0876 51.788 48.2543 52.9958H46.7625C44.1847 52.9958 42.0863 55.0942 42.0863 57.6721C42.0863 58.2209 42.1982 58.7415 42.3732 59.2309H20.2638V53.4076ZM14.0288 62.3499H62.35V65.4674H14.0288V62.3499ZM17.1463 74.8199H21.8225V71.7024H17.1463V68.5849H57.6738V71.7024H24.94V74.8199H57.6738V93.5249H53.9611L50.8436 87.2899H23.9764L20.8589 93.5249H17.1463V74.8199ZM50.4752 93.5249H24.3448L25.9036 90.4074H48.9165L50.4752 93.5249Z" fill="black"/>
</mask>
<g mask="url(#mask0)">
<rect width="96.6426" height="98.9807" fill="url(#paint0_linear)"/>
</g>
<defs>
<linearGradient id="paint0_linear" x1="73.3297" y1="25.845" x2="35.6072" y2="33.128" gradientUnits="userSpaceOnUse">
<stop stop-color="#B47E48"/>
<stop offset="0.494792" stop-color="#CFA57B"/>
<stop offset="1" stop-color="#B47E48"/>
</linearGradient>
</defs>
</svg>
