<svg width="97" height="97" viewBox="0 0 97 97" fill="none" xmlns="http://www.w3.org/2000/svg">
<mask id="mask0" mask-type="alpha" maskUnits="userSpaceOnUse" x="0" y="0" width="97" height="97">
<g clip-path="url(#clip0)">
<path d="M55.9562 58.8391L71.0373 37.9901C71.4996 37.3507 71.4303 36.468 70.8698 35.9075C70.3092 35.3502 69.4266 35.2793 68.7871 35.74L47.9349 50.8259C46.5754 51.8149 45.7201 53.3434 45.5897 55.0202C45.4592 56.6969 46.0665 58.3382 47.2535 59.5253C48.3376 60.6093 49.7775 61.2069 51.3077 61.2069C53.1407 61.2069 54.877 60.3226 55.9562 58.8391Z" fill="black"/>
<path d="M87.8385 31.5119C87.8224 31.4781 87.8224 31.4427 87.8047 31.4088C87.7853 31.3766 87.7547 31.3589 87.7338 31.3283C86.1054 28.5353 84.179 25.9373 81.9916 23.5824L85.4498 20.1242L87.7274 22.4017L94.56 15.5691L87.7274 8.73488L80.8931 15.5691L83.1723 17.8467L79.7141 21.3049C77.3592 19.1175 74.7628 17.1895 71.9682 15.5611C71.9376 15.5401 71.9199 15.5095 71.8876 15.4902C71.8538 15.4709 71.8184 15.4725 71.7846 15.4548C66.8026 12.5845 61.2054 10.6726 55.2393 9.9719V8.05355H57.6554C59.8766 8.05355 61.6822 6.24794 61.6822 4.02677C61.6822 1.80561 59.8734 0 57.6522 0H43.1558C40.9346 0 39.129 1.80561 39.129 4.02677C39.129 6.24794 40.9346 8.05355 43.1558 8.05355H45.5719V9.91553C43.8323 10.1008 42.096 10.3842 40.3789 10.7773C39.5124 10.9754 38.9696 11.8403 39.1693 12.7069C39.3674 13.5734 40.2324 14.1146 41.0989 13.9165C42.6227 13.567 44.1625 13.3077 45.7056 13.1353L47.3018 13.0145C47.8414 12.9743 48.3246 12.9453 48.7917 12.9227V16.1071C48.7917 16.9978 49.5117 17.7178 50.4024 17.7178C51.2931 17.7178 52.0131 16.9978 52.0131 16.1071V12.934C58.071 13.2126 63.7793 14.8395 68.8547 17.5165L67.2665 20.2676C66.822 21.0391 67.0861 22.0232 67.856 22.4678C68.1089 22.6144 68.386 22.6836 68.6598 22.6836C69.2171 22.6836 69.7583 22.3937 70.0563 21.8783L71.6396 19.1336C76.6795 22.3309 80.9608 26.6121 84.158 31.652L81.415 33.2354C80.6483 33.6799 80.3841 34.6641 80.8303 35.4356C81.1299 35.9526 81.6695 36.241 82.2268 36.241C82.5006 36.241 82.7776 36.1717 83.0305 36.0251L85.78 34.437C88.494 39.5848 90.1257 45.3866 90.3689 51.5411H87.1878C86.297 51.5411 85.5771 52.2611 85.5771 53.1518C85.5771 54.0425 86.297 54.7625 87.1878 54.7625H90.3689C90.1257 60.917 88.494 66.7188 85.78 71.8666L83.0305 70.2785C82.2606 69.8323 81.2748 70.0948 80.8303 70.868C80.3857 71.6395 80.6499 72.6237 81.4198 73.0682L84.1628 74.6515C80.9656 79.6915 76.6843 83.9727 71.6444 87.17L70.0611 84.4269C69.6149 83.6538 68.6276 83.3896 67.8609 83.8374C67.0893 84.282 66.8252 85.2677 67.2713 86.0377L68.8595 88.7871C63.7842 91.4641 58.0758 93.0909 52.0179 93.3696V90.1997C52.0179 89.309 51.2979 88.589 50.4072 88.589C49.5165 88.589 48.7965 89.309 48.7965 90.1997V93.3825C46.2242 93.2939 43.6439 92.9718 41.1038 92.3887C40.2372 92.1873 39.3723 92.7318 39.1741 93.5983C38.9744 94.4649 39.5172 95.3298 40.3838 95.5279C43.5988 96.2689 46.883 96.6426 50.1415 96.6426C50.2204 96.6426 50.2961 96.6377 50.375 96.6361C50.3863 96.6361 50.3943 96.6426 50.404 96.6426C50.4169 96.6426 50.4282 96.6345 50.441 96.6345C58.1837 96.5814 65.448 94.4907 71.733 90.8794C71.7829 90.8569 71.8361 90.8456 71.8844 90.8166C71.9166 90.7973 71.9343 90.7667 71.965 90.7458C78.4706 86.9541 83.9067 81.5244 87.7064 75.0236C87.737 74.9801 87.7757 74.9463 87.8031 74.898C87.8224 74.8642 87.8208 74.8287 87.8369 74.7949C91.5157 68.4165 93.6306 61.0298 93.6306 53.1534C93.6306 45.277 91.5157 37.8903 87.8385 31.5119Z" fill="black"/>
<path d="M35.9078 20.9399H27.8542C26.076 20.9399 24.6328 22.3831 24.6328 24.1614C24.6328 25.9396 26.076 27.3828 27.8542 27.3828H35.9078C37.686 27.3828 39.1292 25.9396 39.1292 24.1614C39.1292 22.3831 37.686 20.9399 35.9078 20.9399Z" fill="black"/>
<path d="M35.9086 32.2141H19.8015C18.0233 32.2141 16.5801 33.6573 16.5801 35.4355C16.5801 37.2138 18.0233 38.657 19.8015 38.657H35.9086C37.6868 38.657 39.13 37.2138 39.13 35.4355C39.13 33.6573 37.6868 32.2141 35.9086 32.2141Z" fill="black"/>
<path d="M35.9084 43.4885H11.7478C9.96956 43.4885 8.52637 44.9317 8.52637 46.7099C8.52637 48.4882 9.96956 49.9314 11.7478 49.9314H35.9084C37.6866 49.9314 39.1298 48.4882 39.1298 46.7099C39.1298 44.9317 37.6866 43.4885 35.9084 43.4885Z" fill="black"/>
<path d="M35.9079 54.7644H5.30443C3.5262 54.7644 2.08301 56.2076 2.08301 57.9858C2.08301 59.764 3.5262 61.2072 5.30443 61.2072H35.9079C37.6861 61.2072 39.1293 59.764 39.1293 57.9858C39.1293 56.2076 37.6861 54.7644 35.9079 54.7644Z" fill="black"/>
<path d="M35.9077 66.0388H14.9685C13.1903 66.0388 11.7471 67.482 11.7471 69.2602C11.7471 71.0385 13.1903 72.4817 14.9685 72.4817H35.9077C37.6859 72.4817 39.1291 71.0385 39.1291 69.2602C39.1291 67.482 37.6859 66.0388 35.9077 66.0388Z" fill="black"/>
<path d="M35.9085 77.3147H24.6335C22.8553 77.3147 21.4121 78.7579 21.4121 80.5361C21.4121 82.3143 22.8553 83.7575 24.6335 83.7575H35.9085C37.6867 83.7575 39.1299 82.3143 39.1299 80.5361C39.1299 78.7579 37.6867 77.3147 35.9085 77.3147Z" fill="black"/>
</g>
</mask>
<g mask="url(#mask0)">
<rect x="1.61035" width="93.4211" height="96.6426" fill="url(#paint0_linear)"/>
</g>
<defs>
<linearGradient id="paint0_linear" x1="72.4957" y1="25.2345" x2="36.0047" y2="32.2097" gradientUnits="userSpaceOnUse">
<stop stop-color="#B47E48"/>
<stop offset="0.494792" stop-color="#CFA57B"/>
<stop offset="1" stop-color="#B47E48"/>
</linearGradient>
<clipPath id="clip0">
<rect width="96.6426" height="96.6426" fill="white"/>
</clipPath>
</defs>
</svg>
