<svg width="97" height="98" viewBox="0 0 97 98" fill="none" xmlns="http://www.w3.org/2000/svg">
<mask id="mask0" mask-type="alpha" maskUnits="userSpaceOnUse" x="0" y="0" width="97" height="98">
<path d="M94.7295 61.369H90.2341L81.774 36.4578C85.6403 35.2992 88.345 31.6366 88.3165 27.6016C88.274 22.6069 84.1393 18.4982 79.1419 18.4982C75.9372 18.4963 72.9344 20.2012 71.2825 22.9453C70.5637 24.1394 69.2527 24.8668 67.8628 24.8284C67.571 24.8215 67.2528 24.7673 66.8899 24.6625L54.5424 21.0994V17.4226L55.6121 15.0884C56.7661 12.5689 56.4262 9.64505 54.7243 7.45782L49.4956 0.738512C49.1331 0.272446 48.5759 0 47.9857 0C47.3955 0 46.8381 0.272446 46.4758 0.738321L41.2472 7.45763C39.5452 9.64485 39.2051 12.5687 40.3595 15.0884L41.429 17.4226V21.0991L29.0809 24.6621C27.4067 25.1454 25.5919 24.4451 24.6887 22.945C22.9601 20.0736 19.7615 18.3603 16.4143 18.508C11.5059 18.7257 7.58716 22.8902 7.65623 27.8019C7.7075 31.8029 10.4601 35.3864 14.3032 36.4875L6.16505 61.369H1.91324C0.85656 61.369 0 62.2258 0 63.2823V67.6575C0 71.8611 3.41992 75.2808 7.62332 75.2808H26.6104C30.8138 75.2808 34.2337 71.8611 34.2337 67.6575V63.2823C34.2337 62.2258 33.3771 61.369 32.3204 61.369H27.8251L19.496 36.8433H41.429V82.4132H22.3471C17.4779 82.4132 13.5163 86.3745 13.5163 91.2438V95.926C13.5163 96.9825 14.3729 97.8393 15.4296 97.8393H39.6845C40.7412 97.8393 41.5978 96.9825 41.5978 95.926C41.5978 94.8695 40.7412 94.0128 39.6845 94.0128H17.3428V91.2438C17.3428 88.4845 19.5876 86.2397 22.3471 86.2397H73.5344C76.2939 86.2397 78.5387 88.4845 78.5387 91.2438V94.0128H56.5071C55.4506 94.0128 54.5938 94.8695 54.5938 95.926C54.5938 96.9825 55.4506 97.8393 56.5071 97.8393H80.4517C81.5082 97.8393 82.365 96.9825 82.365 95.926V91.2438C82.365 86.3745 78.4034 82.4132 73.5342 82.4132H54.5422V36.8433H76.5956L68.5735 61.3688H64.3219C63.2654 61.3688 62.4087 62.2256 62.4087 63.2821V67.6573C62.4087 71.8609 65.8286 75.2806 70.0322 75.2806H89.0192C93.2228 75.2806 96.6426 71.8609 96.6426 67.6573V63.2821C96.6428 62.2256 95.786 61.369 94.7295 61.369ZM73.7992 27.6707C73.7992 24.8528 76.0895 22.4513 78.9085 22.3304C81.9381 22.1965 84.5332 24.7187 84.4896 27.7516C84.4468 30.6293 82.0254 33.0169 79.1454 33.0169C76.1976 33.0169 73.7992 30.6186 73.7992 27.6707ZM44.2669 9.80786L47.9857 5.02877L51.7043 9.80786C52.5266 10.8645 52.6907 12.2773 52.1332 13.4947L51.4012 15.0922H44.57L43.8382 13.4949C43.2805 12.2771 43.4446 10.8644 44.2669 9.80786ZM11.5445 28.502C11.5139 28.3045 11.494 28.1042 11.4854 27.9045C11.3605 25.0182 13.6565 22.48 16.5478 22.3316C19.5587 22.1818 22.172 24.6506 22.172 27.6707C22.172 30.6186 19.7738 33.0169 16.8258 33.0169C14.1605 33.0169 11.945 31.0565 11.5445 28.502ZM30.4072 67.6575C30.4072 69.7509 28.704 71.4543 26.6104 71.4543H7.62332C5.52966 71.4543 3.82649 69.7511 3.82649 67.6575V65.1955H30.4072V67.6575ZM10.1909 61.369L16.8597 40.9802L23.7837 61.3688H10.1909V61.369ZM24.2724 33.0169C25.2278 31.6896 25.837 30.0986 25.9687 28.3753C27.3435 28.7557 28.7737 28.7341 30.1422 28.3388L41.429 25.0821V33.017H24.2724V33.0169ZM45.2555 82.4132V18.9183H50.7159V82.4132H45.2555ZM54.5424 25.0821L65.8288 28.3386C66.5118 28.5358 67.148 28.6388 67.773 28.6535C68.5362 28.6719 69.2857 28.5722 70.0024 28.3738C70.1338 30.0978 70.743 31.6894 71.6988 33.017H54.5424V25.0821ZM79.2686 40.9802L86.1928 61.3688H72.5996L79.2686 40.9802ZM92.8163 67.6575C92.8163 69.7509 91.1131 71.4543 89.0194 71.4543H70.0324C67.9387 71.4543 66.2354 69.7511 66.2354 67.6575V65.1955H92.8163V67.6575Z" fill="black"/>
<path d="M49.7525 95.231C49.1103 93.6878 46.8584 93.6907 46.2188 95.231C45.9071 95.9816 46.1181 96.8818 46.7359 97.4116C47.3562 97.9435 48.2671 98.0209 48.9693 97.6035C49.7721 97.1263 50.1117 96.0924 49.7525 95.231Z" fill="black"/>
</mask>
<g mask="url(#mask0)">
<rect x="-10.4697" y="-4.02686" width="107.112" height="103.891" fill="url(#paint0_linear)"/>
</g>
<defs>
<linearGradient id="paint0_linear" x1="70.804" y1="23.1002" x2="29.167" y2="31.5888" gradientUnits="userSpaceOnUse">
<stop stop-color="#B47E48"/>
<stop offset="0.494792" stop-color="#CFA57B"/>
<stop offset="1" stop-color="#B47E48"/>
</linearGradient>
</defs>
</svg>
