<svg width="97" height="96" viewBox="0 0 97 96" fill="none" xmlns="http://www.w3.org/2000/svg">
<g clip-path="url(#clip0)">
<mask id="mask0" mask-type="alpha" maskUnits="userSpaceOnUse" x="0" y="0" width="97" height="97">
<path d="M77.6004 56V33.6C77.6233 23.075 69.6773 14.2024 59.1169 12.9602L64.5052 2.31487C64.7563 1.81799 64.7286 1.22737 64.4318 0.754713C64.135 0.282838 63.6124 -0.00309965 63.0504 2.53542e-05H33.9504C33.3899 2.53542e-05 32.8697 0.286744 32.5745 0.758619C32.28 1.22971 32.2532 1.81878 32.5034 2.31487L37.8855 12.9602C27.3424 14.2352 19.4138 23.0883 19.4004 33.6V62.4H22.6337V33.6C22.6456 23.8844 30.6002 16.0117 40.4171 16H56.5837C61.3019 15.993 65.8298 17.8453 69.1658 21.1477C72.5025 24.4492 74.3742 28.9305 74.3671 33.6V56H77.6004ZM55.5844 12.8H41.4164L36.5664 3.20003H60.4344L55.5844 12.8Z" fill="black"/>
<path d="M34.7585 23.9023C35.6434 23.3937 36.5946 23.007 37.5861 22.7539L36.7777 19.6562C35.5029 19.9836 34.2785 20.4805 33.1387 21.1328L34.7585 23.9023Z" fill="black"/>
<path d="M25.8663 40H29.0996V33.6C29.0917 30.5711 30.3326 27.6703 32.5366 25.568L30.2845 23.2734C27.4514 25.9758 25.8552 29.7055 25.8663 33.6V40Z" fill="black"/>
<path d="M4.61082 78.6369L32.0571 93.4517C35.1459 95.1228 38.6098 95.9994 42.1304 96.0001H95.3833C96.2761 96.0001 97 95.2837 97 94.4001V65.6002C97 64.7166 96.2761 64.0002 95.3833 64.0002H83.0113L82.8265 63.858C80.9281 62.3908 78.8291 61.197 76.5927 60.3103C68.7486 57.1423 59.8411 57.9212 52.679 62.4002H40.4167C37.8425 62.3994 35.4214 63.6127 33.8979 65.6666C32.3752 67.7205 31.9315 70.3697 32.7036 72.8002L12.7186 62.89C9.75053 61.415 6.19118 61.7517 3.56015 63.7572C1.32302 65.4158 0.00474292 68.0181 6.58794e-06 70.7845V70.9603C-0.00394034 74.1627 1.76587 77.1103 4.61082 78.6369ZM84.0667 67.2002H93.7667V92.8001H84.0667V67.2002ZM3.23334 70.7845C3.24518 68.9931 4.1143 67.3127 5.57624 66.2564C7.22212 65.0275 9.43083 64.8314 11.2717 65.7509L36.461 78.2306C36.6844 78.3423 36.9323 78.4002 37.1833 78.4002H61.4333V75.2002H40.4167C37.7383 75.2002 35.5667 73.0509 35.5667 70.4002C35.5667 67.7494 37.7383 65.6002 40.4167 65.6002H53.1558C53.4724 65.5994 53.7818 65.508 54.047 65.3361C60.3811 61.208 68.3657 60.4377 75.3866 63.2783C77.3403 64.0533 79.174 65.0962 80.8333 66.3759V92.8001H42.1304C39.1513 92.7994 36.2211 92.0572 33.6074 90.6431L6.15329 75.8259C4.35032 74.858 3.22939 72.99 3.23334 70.9603V70.7845Z" fill="black"/>
<path d="M87.2998 84.8H90.5331V88H87.2998V84.8Z" fill="black"/>
<path d="M50.1165 56V52.8H51.7331C55.3043 52.8 58.1998 49.9343 58.1998 46.4C58.1998 42.8656 55.3043 40 51.7331 40H45.2665C43.4809 40 42.0331 38.5671 42.0331 36.8C42.0331 35.0328 43.4809 33.6 45.2665 33.6H56.5831V30.4H50.1165V27.2H46.8831V30.4H45.2665C41.6953 30.4 38.7998 33.2656 38.7998 36.8C38.7998 40.3343 41.6953 43.2 45.2665 43.2H51.7331C53.5187 43.2 54.9665 44.6328 54.9665 46.4C54.9665 48.1671 53.5187 49.6 51.7331 49.6H40.4165V52.8H46.8831V56H50.1165Z" fill="black"/>
</mask>
<g mask="url(#mask0)">
<rect width="110" height="110" fill="url(#paint0_linear)"/>
</g>
</g>
<defs>
<linearGradient id="paint0_linear" x1="83.4649" y1="28.7222" x2="40.604" y2="37.1976" gradientUnits="userSpaceOnUse">
<stop stop-color="#B47E48"/>
<stop offset="0.494792" stop-color="#CFA57B"/>
<stop offset="1" stop-color="#B47E48"/>
</linearGradient>
<clipPath id="clip0">
<rect width="97" height="96" fill="white"/>
</clipPath>
</defs>
</svg>
