<svg width="98" height="91" viewBox="0 0 98 91" fill="none" xmlns="http://www.w3.org/2000/svg">
<mask id="mask0" mask-type="alpha" maskUnits="userSpaceOnUse" x="0" y="0" width="98" height="91">
<path d="M96.8763 34.9523C96.4876 34.4991 95.9198 34.2377 95.3197 34.2377H91.0612V11.2787C91.0612 9.70593 89.782 8.42676 88.2092 8.42676H38.7423L34.7338 1.74697C34.2225 0.892033 33.2853 0.361328 32.2884 0.361328H10.031C8.45986 0.362941 7.18068 1.64212 7.18068 3.21326V34.2361H2.77857C2.18173 34.2361 1.61392 34.4958 1.22517 34.9475C0.8348 35.3992 0.660587 35.9976 0.75092 36.5929L8.68408 88.9552C8.84055 89.9634 9.69226 90.6941 10.7101 90.6941H87.3866C88.406 90.6941 89.2577 89.9634 89.4142 88.9504L97.3457 36.5993C97.4377 36.0073 97.2667 35.4072 96.8763 34.9523ZM10.4069 3.58911H32.0771L36.0856 10.2689C36.5969 11.1238 37.5341 11.6545 38.531 11.6545H87.835V34.2377H86.2219V27.7854H84.6088V22.9461H82.9957V18.1069H15.2461V22.9461H13.633V27.7854H12.0199V34.2377H10.4069V3.58911ZM15.2461 31.0116H82.9957V34.2377H15.2461V31.0116ZM16.8592 26.1723H81.3826V27.7854H16.8592V26.1723ZM79.7696 22.9461H18.4723V21.3331H79.7696V22.9461ZM86.3768 87.4696H11.7215L4.14647 37.4639H7.18068H12.0199H86.2219H91.0612H93.9534L86.3768 87.4696Z" fill="#B47E48"/>
<path d="M44.2109 79.4045H78.0858V56.8213H44.2109V79.4045ZM47.4371 60.0475H74.8596V76.1783H47.4371V60.0475Z" fill="#B47E48"/>
<path d="M52.2762 66.4991H58.7285C59.6206 66.4991 60.3416 65.7781 60.3416 64.886C60.3416 63.994 59.6206 63.2729 58.7285 63.2729H52.2762C51.3841 63.2729 50.6631 63.994 50.6631 64.886C50.6631 65.7781 51.3841 66.4991 52.2762 66.4991Z" fill="#B47E48"/>
<path d="M65.1805 66.4991H66.7936C67.6856 66.4991 68.4066 65.7781 68.4066 64.886C68.4066 63.994 67.6856 63.2729 66.7936 63.2729H65.1805C64.2884 63.2729 63.5674 63.994 63.5674 64.886C63.5674 65.7781 64.2884 66.4991 65.1805 66.4991Z" fill="#B47E48"/>
<path d="M70.0201 69.7256H52.2762C51.3841 69.7256 50.6631 70.4466 50.6631 71.3387C50.6631 72.2307 51.3841 72.9518 52.2762 72.9518H70.0201C70.9122 72.9518 71.6332 72.2307 71.6332 71.3387C71.6332 70.4466 70.9122 69.7256 70.0201 69.7256Z" fill="#B47E48"/>
</mask>
<g mask="url(#mask0)">
<rect x="-4.55762" y="0.361328" width="107.967" height="90.4127" fill="url(#paint0_linear)"/>
</g>
<defs>
<linearGradient id="paint0_linear" x1="77.3645" y1="23.9691" x2="35.9596" y2="33.7462" gradientUnits="userSpaceOnUse">
<stop stop-color="#B47E48"/>
<stop offset="0.494792" stop-color="#CFA57B"/>
<stop offset="1" stop-color="#B47E48"/>
</linearGradient>
</defs>
</svg>
