<svg width="97" height="98" viewBox="0 0 97 98" fill="none" xmlns="http://www.w3.org/2000/svg">
<mask id="mask0" mask-type="alpha" maskUnits="userSpaceOnUse" x="3" y="0" width="91" height="98">
<path d="M58.2041 34.2056C58.2041 35.0983 58.927 35.8229 59.8214 35.8229H75.9944C76.8888 35.8229 77.6117 35.0983 77.6117 34.2056C77.6117 33.3129 76.8888 32.5884 75.9944 32.5884H59.8214C58.927 32.5882 58.2041 33.3128 58.2041 34.2056Z" fill="black"/>
<path d="M67.9072 43.9097C67.9072 44.8024 68.6301 45.527 69.5245 45.527H79.2283C80.1227 45.527 80.8456 44.8024 80.8456 43.9097C80.8456 43.017 80.1227 42.2925 79.2283 42.2925H69.5245C68.6301 42.2923 67.9072 43.0169 67.9072 43.9097Z" fill="black"/>
<path d="M66.2904 26.1193C67.1848 26.1193 67.9077 25.3947 67.9077 24.502C67.9077 23.6093 67.1848 22.8848 66.2904 22.8848H63.0557C62.1613 22.8848 61.4385 23.6093 61.4385 24.502C61.4385 25.3947 62.1613 26.1193 63.0557 26.1193H66.2904Z" fill="black"/>
<path d="M46.8819 42.2925C45.9875 42.2925 45.2646 43.0171 45.2646 43.9097C45.2646 44.8024 45.9875 45.527 46.8819 45.527H63.055C63.9494 45.527 64.6722 44.8024 64.6722 43.9097C64.6722 43.0171 63.9494 42.2925 63.055 42.2925H46.8819Z" fill="black"/>
<path d="M54.9693 87.5772H24.2404C21.5654 87.5772 19.3885 85.4003 19.3885 82.7253V8.32868C19.3885 7.436 18.6656 6.71143 17.7712 6.71143C13.3123 6.71143 9.68457 10.339 9.68457 14.7981C9.68457 15.6907 10.4074 16.4153 11.3018 16.4153C12.1962 16.4153 12.9191 15.6907 12.9191 14.7981C12.9191 12.689 14.2712 10.8905 16.1538 10.2226V82.7253C16.1538 87.1841 19.7813 90.8119 24.2404 90.8119H54.9693C55.8637 90.8119 56.5865 90.0873 56.5865 89.1946C56.5865 88.302 55.8637 87.5772 54.9693 87.5772Z" fill="black"/>
<path d="M30.709 35.8229H53.3515C54.2459 35.8229 54.9687 35.0983 54.9687 34.2056C54.9687 33.3129 54.2459 32.5884 53.3515 32.5884H30.709C29.8147 32.5884 29.0918 33.3129 29.0918 34.2056C29.0918 35.0983 29.8147 35.8229 30.709 35.8229Z" fill="black"/>
<path d="M30.709 26.1193H37.1782C38.0726 26.1193 38.7955 25.3947 38.7955 24.502C38.7955 23.6093 38.0726 22.8848 37.1782 22.8848H30.709C29.8147 22.8848 29.0918 23.6093 29.0918 24.502C29.0918 25.3947 29.8147 26.1193 30.709 26.1193Z" fill="black"/>
<path d="M56.5861 22.8843H43.6475C42.7531 22.8843 42.0303 23.6088 42.0303 24.5015C42.0303 25.3942 42.7531 26.1188 43.6475 26.1188H56.5861C57.4805 26.1188 58.2033 25.3942 58.2033 24.5015C58.2035 23.6088 57.4805 22.8843 56.5861 22.8843Z" fill="black"/>
<path d="M79.2287 0.279297H17.7707C9.76326 0.279297 3.24555 6.77919 3.21484 14.7785V14.7978V14.8156V14.8351V14.8545C3.23588 20.0121 6.0193 24.8171 10.4911 27.4049C11.2641 27.8512 12.2523 27.5876 12.7002 26.8162C13.1498 26.0431 12.8829 25.0534 12.1115 24.6069C8.62476 22.5869 6.45598 18.838 6.44953 14.8158C6.46091 8.58256 11.5344 3.51399 17.7707 3.51399H79.2287C85.4699 3.51399 90.5498 8.59242 90.5498 14.8351V82.7623C90.5498 83.5822 90.3201 84.4055 89.8884 85.1398C89.4371 85.9096 89.6926 86.9011 90.4624 87.3539C90.7212 87.5059 91.0026 87.5771 91.2808 87.5771C91.8356 87.5771 92.3757 87.2924 92.6765 86.7798C93.4011 85.549 93.7843 84.1597 93.7843 82.7623V14.8351C93.7845 6.80838 87.2554 0.279297 79.2287 0.279297Z" fill="black"/>
<path d="M84.0806 74.6385C84.0806 69.2867 79.7285 64.9346 74.3767 64.9346C69.025 64.9346 64.6729 69.2867 64.6729 74.6385C64.6729 79.9902 69.025 84.3423 74.3767 84.3423C79.7285 84.3423 84.0806 79.9902 84.0806 74.6385ZM74.3767 81.1077C70.8089 81.1077 67.9075 78.2062 67.9075 74.6385C67.9075 71.0708 70.809 68.1693 74.3767 68.1693C77.9446 68.1693 80.8459 71.0708 80.8459 74.6385C80.8459 78.2062 77.9446 81.1077 74.3767 81.1077Z" fill="black"/>
<path d="M71.4578 85.9614C70.6864 85.5151 69.6965 85.7802 69.2484 86.5533L65.7664 92.5876L65.2134 91.7531C64.9336 91.3278 64.4695 91.0592 63.9615 91.0302L62.962 90.9703L66.5023 84.8408C66.9487 84.0677 66.6835 83.0779 65.9105 82.6314C65.1374 82.1834 64.1476 82.4487 63.6996 83.2233L58.8526 91.6189C58.5728 92.1041 58.5647 92.7009 58.8298 93.1941C59.095 93.6872 59.5965 94.0092 60.1577 94.0414L62.9604 94.2096L64.5081 96.5531C64.8074 97.0076 65.3151 97.2792 65.857 97.2792H65.9072C66.4652 97.2614 66.9779 96.9556 67.2593 96.4705L72.0514 88.1704C72.4977 87.3977 72.2326 86.4078 71.4578 85.9614Z" fill="black"/>
<path d="M85.096 83.299C84.6479 82.5244 83.6565 82.2591 82.8866 82.7071C82.112 83.1534 81.8467 84.1433 82.293 84.9162L85.7913 90.9698L84.7918 91.0297C84.284 91.0604 83.8199 91.329 83.5384 91.7526L82.9886 92.5871L79.5244 86.5835C79.0748 85.8104 78.0849 85.5453 77.3135 85.9916C76.5404 86.438 76.2753 87.4279 76.7216 88.201L81.4959 96.4703C81.7773 96.9555 82.29 97.2612 82.848 97.279H82.8982C83.4383 97.279 83.9478 97.0072 84.2486 96.5529L85.7948 94.2111L88.596 94.0413C89.1572 94.0089 89.6585 93.6871 89.9238 93.1939C90.1892 92.7008 90.1793 92.1039 89.9013 91.6188L85.096 83.299Z" fill="black"/>
<path d="M30.709 45.527H40.4129C41.3073 45.527 42.0302 44.8024 42.0302 43.9097C42.0302 43.017 41.3073 42.2925 40.4129 42.2925H30.709C29.8147 42.2925 29.0918 43.017 29.0918 43.9097C29.0918 44.8024 29.8147 45.527 30.709 45.527Z" fill="black"/>
<path d="M30.709 55.2306H50.1168C51.0112 55.2306 51.7341 54.506 51.7341 53.6133C51.7341 52.7207 51.0112 51.9961 50.1168 51.9961H30.709C29.8147 51.9961 29.0918 52.7207 29.0918 53.6133C29.0918 54.506 29.8147 55.2306 30.709 55.2306Z" fill="black"/>
<path d="M30.8806 75.3615C31.2784 76.1603 32.2505 76.4838 33.0494 76.086C33.8482 75.6865 34.1735 74.7146 33.7722 73.9155C32.1711 70.7133 31.8121 67.8409 32.8083 66.2284C33.3388 65.3697 34.2639 64.9345 35.561 64.9345C36.3324 64.9345 36.6203 65.1997 36.8015 65.4586C38.0063 67.1956 36.8614 72.4857 35.663 75.688C35.3961 76.4012 35.663 77.2035 36.3034 77.6159C36.9406 78.0251 37.7832 77.9362 38.3219 77.3993C39.0125 76.7103 39.7614 76.0229 40.4132 75.4649V76.2558C40.4132 76.9091 40.8062 77.4995 41.411 77.7486C42.0158 78.0008 42.7097 77.8617 43.1738 77.3993C43.913 76.6618 44.77 75.9388 45.4914 75.4181C45.4721 75.4585 45.4525 75.4973 45.4332 75.5345C45.1857 76.0358 45.2132 76.6311 45.5077 77.1064C45.8037 77.582 46.3229 77.8731 46.8823 77.8731H53.3515C54.2459 77.8731 54.9688 77.1485 54.9688 76.2558C54.9688 75.3632 54.2459 74.6386 53.3515 74.6386H49.1417C49.2727 73.8687 49.2405 73.086 48.8506 72.4552C48.4382 71.7873 47.7201 71.4039 46.8823 71.4039C45.8828 71.4039 44.7071 72.0119 43.6332 72.7657C43.5508 72.0604 43.1335 71.4799 42.4995 71.218C42.0677 71.04 41.5113 70.8073 40.1609 71.6175C40.6929 68.8308 40.8483 65.6189 39.4606 63.6167C38.8541 62.7417 37.6864 61.7002 35.5612 61.7002C33.1385 61.7002 31.1831 62.7045 30.056 64.5289C28.4434 67.1391 28.7425 71.087 30.8806 75.3615Z" fill="black"/>
<path d="M74.3763 53.6133C74.3763 52.7207 73.6535 51.9961 72.7591 51.9961H56.586C55.6916 51.9961 54.9688 52.7207 54.9688 53.6133C54.9688 54.506 55.6916 55.2306 56.586 55.2306H72.7591C73.6535 55.2306 74.3763 54.506 74.3763 53.6133Z" fill="black"/>
</mask>
<g mask="url(#mask0)">
<rect x="3.2334" y="0.279297" width="93.7667" height="97" fill="url(#paint0_linear)"/>
</g>
<defs>
<linearGradient id="paint0_linear" x1="74.3809" y1="25.6071" x2="37.7549" y2="32.6081" gradientUnits="userSpaceOnUse">
<stop stop-color="#B47E48"/>
<stop offset="0.494792" stop-color="#CFA57B"/>
<stop offset="1" stop-color="#B47E48"/>
</linearGradient>
</defs>
</svg>
