<svg width="97" height="72" viewBox="0 0 97 72" fill="none" xmlns="http://www.w3.org/2000/svg">
<mask id="mask0" mask-type="alpha" maskUnits="userSpaceOnUse" x="0" y="0" width="97" height="72">
<path d="M89.8502 0.958496H6.79236C3.04746 0.958496 0 4.00596 0 7.75086V65.0373C0 68.7822 3.04746 71.8297 6.79236 71.8297H89.8502C93.5951 71.8297 96.6426 68.7822 96.6426 65.0373V7.75086C96.6426 4.00596 93.5951 0.958496 89.8502 0.958496ZM93.4211 65.0373C93.4211 67.0072 91.8201 68.6083 89.8502 68.6083H6.79236C4.82246 68.6083 3.22142 67.0072 3.22142 65.0373V7.75086C3.22142 5.78096 4.82246 4.17991 6.79236 4.17991H89.8502C91.8201 4.17991 93.4211 5.78096 93.4211 7.75086V65.0373Z" fill="black"/>
<path d="M36.4698 46.4582L30.6036 43.4623V42.8389C33.2259 41.407 35.0701 39.0489 36.0994 35.8098C37.6602 34.9819 38.6572 33.3696 38.6572 31.5624V29.9516C38.6572 28.4601 37.963 27.0765 36.8033 26.1681C35.7982 20.0796 31.5491 16.9935 24.1608 16.9935C23.8113 16.9935 23.4698 17.0064 23.1364 17.0321C21.2003 17.1884 19.3303 16.7712 17.9435 15.8402C17.2847 15.3957 16.787 14.964 16.4697 14.5629C15.7545 13.648 14.2646 13.6078 13.5011 14.4631C13.1355 14.8722 12.9632 15.423 13.0276 15.9707C13.0952 16.5731 13.1967 17.2738 13.3497 18.0421C13.6606 19.6125 13.6606 19.6125 13.2241 20.5515C13.0598 20.9075 12.8568 21.3408 12.6185 21.9255C12.0853 23.2318 11.7068 24.6621 11.4894 26.189C10.3474 27.0991 9.66442 28.4746 9.66442 29.9516V31.5624C9.66442 33.3696 10.6614 34.9819 12.2222 35.8098C13.2515 39.0505 15.0957 41.4086 17.718 42.8389V43.4446L11.6472 46.4373C9.43087 47.6453 8.05371 49.9647 8.05371 52.4903V54.6245C8.05371 55.9179 8.05371 58.9444 24.1608 58.9444C40.2679 58.9444 40.2679 55.9179 40.2679 54.6245V52.6192C40.2679 49.9905 38.8086 47.6276 36.4698 46.4582Z" fill="black"/>
<path d="M48.3216 25.1194H64.4287C65.3195 25.1194 66.0394 24.3994 66.0394 23.5087C66.0394 22.6179 65.3195 21.8979 64.4287 21.8979H48.3216C47.4309 21.8979 46.7109 22.6179 46.7109 23.5087C46.7109 24.3994 47.4309 25.1194 48.3216 25.1194Z" fill="black"/>
<path d="M70.8705 25.1194H72.4812C73.3719 25.1194 74.0919 24.3994 74.0919 23.5087C74.0919 22.6179 73.3719 21.8979 72.4812 21.8979H70.8705C69.9798 21.8979 69.2598 22.6179 69.2598 23.5087C69.2598 24.3994 69.9798 25.1194 70.8705 25.1194Z" fill="black"/>
<path d="M49.9324 49.2803H48.3216C47.4309 49.2803 46.7109 50.0003 46.7109 50.891C46.7109 51.7817 47.4309 52.5017 48.3216 52.5017H49.9324C50.8231 52.5017 51.5431 51.7817 51.5431 50.891C51.5431 50.0003 50.8231 49.2803 49.9324 49.2803Z" fill="black"/>
<path d="M59.5958 49.2803H56.3744C55.4837 49.2803 54.7637 50.0003 54.7637 50.891C54.7637 51.7817 55.4837 52.5017 56.3744 52.5017H59.5958C60.4865 52.5017 61.2065 51.7817 61.2065 50.891C61.2065 50.0003 60.4865 49.2803 59.5958 49.2803Z" fill="black"/>
<path d="M67.6492 49.2803H66.0384C65.1477 49.2803 64.4277 50.0003 64.4277 50.891C64.4277 51.7817 65.1477 52.5017 66.0384 52.5017H67.6492C68.5399 52.5017 69.2599 51.7817 69.2599 50.891C69.2599 50.0003 68.5399 49.2803 67.6492 49.2803Z" fill="black"/>
<path d="M77.3136 49.2803H74.0922C73.2014 49.2803 72.4814 50.0003 72.4814 50.891C72.4814 51.7817 73.2014 52.5017 74.0922 52.5017H77.3136C78.2043 52.5017 78.9243 51.7817 78.9243 50.891C78.9243 50.0003 78.2043 49.2803 77.3136 49.2803Z" fill="black"/>
<path d="M82.6126 49.7473C82.3211 50.0517 82.1455 50.4721 82.1455 50.8909C82.1455 51.3097 82.3211 51.7284 82.6126 52.0345C82.917 52.3244 83.3374 52.5016 83.7562 52.5016C84.175 52.5016 84.5938 52.3244 84.8998 52.0345C85.1897 51.7284 85.3669 51.3097 85.3669 50.8909C85.3669 50.4721 85.1897 50.0517 84.8998 49.7473C84.2877 49.1513 83.2086 49.1513 82.6126 49.7473Z" fill="black"/>
<path d="M83.7572 31.563H48.3216C47.4309 31.563 46.7109 32.283 46.7109 33.1737C46.7109 34.0644 47.4309 34.7844 48.3216 34.7844H83.7572C84.648 34.7844 85.368 34.0644 85.368 33.1737C85.368 32.283 84.648 31.563 83.7572 31.563Z" fill="black"/>
<path d="M83.7572 41.2261H48.3216C47.4309 41.2261 46.7109 41.9461 46.7109 42.8368C46.7109 43.7275 47.4309 44.4475 48.3216 44.4475H83.7572C84.648 44.4475 85.368 43.7275 85.368 42.8368C85.368 41.9461 84.648 41.2261 83.7572 41.2261Z" fill="black"/>
</mask>
<g mask="url(#mask0)">
<rect x="-1.54102" y="0.958496" width="101.685" height="70.8712" fill="url(#paint0_linear)"/>
</g>
<defs>
<linearGradient id="paint0_linear" x1="75.6145" y1="19.4638" x2="37.5115" y2="30.2741" gradientUnits="userSpaceOnUse">
<stop stop-color="#B47E48"/>
<stop offset="0.494792" stop-color="#CFA57B"/>
<stop offset="1" stop-color="#B47E48"/>
</linearGradient>
</defs>
</svg>
