<svg width="637" height="1050" viewBox="0 0 637 1050" fill="none" xmlns="http://www.w3.org/2000/svg">
<path d="M296.668 1050V980.166C296.668 951.062 308.23 923.15 328.81 902.57C349.39 881.99 377.302 870.428 406.406 870.428C421.681 870.436 436.705 866.547 450.058 859.128C463.41 851.71 474.649 841.008 482.711 828.034C490.774 815.061 495.393 800.245 496.133 784.988C496.872 769.731 493.707 754.538 486.936 740.846C480.166 727.153 470.014 715.415 457.442 706.74C444.869 698.066 430.291 692.742 415.087 691.273C399.883 689.804 384.556 692.238 370.555 698.345C356.555 704.452 344.343 714.03 335.077 726.173C327.4 736.262 321.932 747.853 319.027 760.194C316.123 772.534 315.846 785.347 318.217 797.802C298.476 791.826 279.365 783.94 261.153 774.258C203.022 743.48 156.217 694.969 127.54 635.773C98.8627 576.577 89.8062 509.779 101.686 445.085C113.566 380.39 145.764 321.168 193.602 276.022C241.439 230.877 302.425 202.16 367.699 194.043L376.478 192.945V-154.326C376.504 -168.305 382.076 -181.703 391.97 -191.578C401.864 -201.454 415.272 -207 429.252 -207H431.646H436.335V251.905H406.406C353.438 252.09 301.905 269.134 259.272 300.568C216.639 332.002 185.12 376.192 169.283 426.738C153.446 477.283 154.113 531.558 171.186 581.699C188.26 631.841 220.854 675.244 264.246 705.622L272.925 711.707L278.412 702.629C284.938 691.915 292.78 682.062 301.756 673.299L310.535 664.719L300.559 657.836C274.892 640.558 253.845 617.26 239.255 589.975C224.665 562.691 216.976 532.25 216.859 501.309C216.735 460.338 230.052 420.457 254.768 387.78C272.327 364.122 295.196 344.917 321.535 331.713C347.873 318.509 376.944 311.675 406.406 311.762H595.954V571.143L597.65 573.736C620.654 608.313 633.842 648.485 635.809 689.969C637.775 731.452 628.446 772.691 608.816 809.289C589.186 845.887 559.991 876.471 524.344 897.779C488.698 919.088 447.936 930.323 406.406 930.285C393.177 930.285 380.49 935.541 371.135 944.895C361.781 954.25 356.525 966.937 356.525 980.166V990.142H406.406C414.344 990.142 421.956 993.296 427.569 998.908C433.182 1004.52 436.335 1012.13 436.335 1020.07V1050H296.668ZM277.514 486.744C277.514 491.732 276.716 496.72 276.716 501.309C276.716 535.705 290.38 568.693 314.701 593.014C339.023 617.336 372.01 631 406.406 631C439.509 630.979 471.685 641.935 497.896 662.153C524.107 682.371 542.875 710.71 551.261 742.733L561.237 780.044L571.213 742.733C574.806 728.887 576.617 714.639 576.6 700.334C576.6 655.355 558.732 612.218 526.927 580.412C495.122 548.607 451.984 530.739 407.005 530.739C385.951 530.739 365.135 526.295 345.915 517.7C326.696 509.105 309.507 496.551 295.471 480.858L280.607 464.198L277.514 486.744ZM406.406 371.619C376.774 371.647 348.045 381.822 325.001 400.45L319.514 404.84L321.808 411.524C327.994 429.02 339.45 444.171 354.6 454.89C369.749 465.609 387.848 471.37 406.406 471.381C446.61 471.133 486.173 481.454 521.133 501.309L536.097 509.989V371.619H406.406ZM17.3351 1050V900.357C17.2808 873.167 24.6353 846.477 38.6087 823.152C52.5822 799.828 72.6464 780.752 96.6458 767.973C109.469 761.043 123.255 756.067 137.548 753.208C155.932 772.808 176.405 790.338 198.602 805.483C190.234 807.992 181.59 809.466 172.864 809.873C171.003 809.974 169.138 809.974 167.277 809.873C160.017 809.874 152.782 810.745 145.729 812.467C129.98 816.355 115.579 824.438 104.056 835.855C92.5325 847.273 84.3179 861.599 80.2848 877.312L74.4986 899.758L94.451 888.485C116.616 876.202 141.537 869.748 166.878 869.73C181.491 869.72 195.88 866.144 208.798 859.311C221.715 852.479 232.769 842.597 241.001 830.523C259.116 839.602 277.932 847.209 297.267 853.269C284.284 876.467 265.389 895.813 242.505 909.341C219.62 922.869 193.561 930.095 166.978 930.285C151.224 930.293 135.75 934.445 122.109 942.325C108.468 950.205 97.1402 961.535 89.2634 975.178L80.5841 990.142H127.073C135.011 990.142 142.623 993.296 148.236 998.908C153.849 1004.52 157.002 1012.13 157.002 1020.07V1050H17.3351ZM-232.07 1050C-243.864 1050.04 -255.548 1047.73 -266.441 1043.21C-277.334 1038.69 -287.218 1032.04 -295.518 1023.66L-359.066 960.214L-295.518 896.666C-285.173 886.355 -272.469 878.724 -258.508 874.434C-244.546 870.144 -229.749 869.325 -215.4 872.047C-201.05 874.77 -187.581 880.952 -176.161 890.057C-164.742 899.163 -155.715 910.917 -149.866 924.3L-147.172 930.285H-140.688C-135.707 930.378 -130.757 929.48 -126.127 927.644C-121.496 925.808 -117.276 923.07 -113.712 919.589C-110.148 916.109 -107.31 911.955 -105.365 907.369C-103.42 902.783 -102.405 897.856 -102.379 892.875C-102.5 867.673 -93.3277 843.311 -76.6165 824.447C-59.9053 805.582 -36.8275 793.539 -11.7954 790.619C-29.4128 819.706 -39.6847 852.644 -41.724 886.59C-41.8559 888.483 -41.8559 890.383 -41.724 892.276C-41.6576 905.163 -44.1503 917.936 -49.0575 929.852C-53.9648 941.769 -61.189 952.593 -70.3111 961.697C-79.4333 970.8 -90.2719 978.002 -102.199 982.885C-114.125 987.768 -126.903 990.235 -139.79 990.142H-146.374L-149.866 996.128C-154.287 1006.43 -160.656 1015.78 -168.621 1023.66C-176.931 1032.03 -186.817 1038.66 -197.708 1043.19C-208.599 1047.71 -220.278 1050.02 -232.07 1050ZM-232.07 930.285C-240.004 930.292 -247.612 933.45 -253.219 939.064L-274.369 960.214L-253.219 981.363C-249.034 985.544 -243.703 988.39 -237.901 989.542C-232.099 990.695 -226.085 990.102 -220.62 987.839C-215.154 985.576 -210.482 981.744 -207.193 976.828C-203.904 971.911 -202.146 966.129 -202.141 960.214C-202.141 952.276 -205.294 944.664 -210.907 939.051C-216.52 933.438 -224.132 930.285 -232.07 930.285ZM46.7648 735.251H42.8741C29.9521 734.395 17.8175 728.737 8.85529 719.389C4.1665 714.301 -0.522308 709.413 -5.0116 704.125L27.6106 685.27C39.1534 678.547 52.8382 676.517 65.8356 679.599C78.833 682.682 90.149 690.641 97.4439 701.831C99.2396 704.724 101.235 707.717 103.33 710.809L72.8027 728.467C64.9366 732.985 56.0353 735.391 46.9643 735.45L46.7648 735.251ZM-21.6718 644.767C-30.7203 644.744 -39.6074 642.369 -47.4605 637.874C-55.3137 633.379 -61.8628 626.919 -66.4648 619.128C-70.2558 612.643 -73.947 606.159 -77.4387 599.176L-7.60535 580.321C5.26077 576.855 18.9666 578.462 30.6814 584.812C42.3962 591.161 51.225 601.767 55.3444 614.439C56.4417 617.831 57.5391 621.223 58.836 624.415L-8.70273 642.971C-13.0943 644.155 -17.6222 644.759 -22.1707 644.767H-21.6718ZM-70.4554 531.238C-81.8999 531.212 -93.0271 527.473 -102.166 520.583C-111.304 513.693 -117.96 504.025 -121.134 493.029C-123.13 485.946 -125.025 478.663 -126.821 471.381H-14.7882C-1.29898 471.363 11.681 476.531 21.4667 485.815C31.2524 495.1 37.0952 507.79 37.7863 521.262C37.7863 524.654 37.7863 527.946 38.4846 531.238H-70.4554ZM-102.878 395.262C-114.024 392.257 -123.881 385.686 -130.942 376.553C-138.003 367.42 -141.882 356.227 -141.985 344.683V341.69C-141.985 335.605 -141.985 329.42 -141.985 323.334L7.6582 363.239C20.6575 366.727 31.8286 375.058 38.8783 386.523C45.9281 397.989 48.3216 411.717 45.5677 424.892C44.8693 428.184 44.2708 431.476 43.6722 434.868L-102.878 395.262ZM-95.1963 245.62C-105.464 239.729 -113.444 230.546 -117.844 219.556C-122.243 208.566 -122.805 196.413 -119.438 185.064C-117.543 178.679 -115.548 172.295 -113.353 165.91L56.741 264.275C68.5133 271.016 77.2309 282.039 81.0779 295.048C84.9248 308.057 83.6044 322.049 77.3917 334.108C75.8953 337.101 74.3988 340.094 73.0022 343.187L-95.1963 245.62ZM-39.5292 97.2737C-48.2406 88.5432 -53.6192 77.0374 -54.7309 64.7544C-55.8425 52.4713 -52.6171 40.1868 -45.6147 30.0342L-35.6385 16.267L129.767 182.071C139.28 191.608 144.786 204.423 145.157 217.888C145.528 231.354 140.736 244.452 131.762 254.498C129.467 256.992 127.273 259.586 125.078 262.18L-39.5292 97.2737ZM65.0213 -30.621C58.5421 -41.7961 56.3951 -54.9624 58.9885 -67.6169C61.582 -80.2713 68.735 -91.5317 79.0876 -99.2572L89.9617 -107.138L221.747 121.017C228.475 132.686 230.477 146.49 227.342 159.59C224.206 172.69 216.17 184.091 204.887 191.449L196.507 197.135L65.0213 -30.621ZM209.277 -119.309C205.701 -132.468 207.388 -146.501 213.98 -158.437C220.572 -170.373 231.551 -179.275 244.593 -183.257L253.372 -185.85L326.098 86.1004C329.604 99.112 327.99 112.973 321.588 124.831C315.186 136.689 304.483 145.642 291.68 149.848L282.203 153.041L209.277 -119.309Z" fill="#494949" fill-opacity="0.16"/>
</svg>
